<svg id="Layer_1" data-name="Layer 1" xmlns="http://www.w3.org/2000/svg" viewBox="0 0 540 340"><defs><style>.cls-1{fill:#fefefe;}.cls-2{fill:#006ecd;}.cls-3{fill:#006fce;}.cls-4{fill:#fcfcfc;}</style></defs><title>amex-logo-color</title><path class="cls-1" d="M444.57,559.78q-266.25,0-532.5.05c-1.69,0-2.07-.38-2.07-2.07q.06-357.93,0-715.85c0-1.69.38-2.07,2.07-2.07q333.29.07,666.58,0c.21,1.4-1,1.93-1.72,2.68q-16.11,16.17-32.26,32.28L494.44-74.92c-1.25,1.26-2.78,2.32-3,4.31,0,.35-.55.46-.92.57a26.59,26.59,0,0,1-4.72.17H5.47c-5.72,0-5.18-.43-5.18,5.25q0,107.87,0,215.73c0,1.2,0,2.39-.06,3.38,6-14.11,12.17-28.4,18.28-42.71a3.84,3.84,0,0,1,3.94-2.65c10,0,20,0,29.92,0,1.68,0,3.17.34,3.92,2,3.19,7.16,6.27,14.38,9.18,21.46,0-6.28,0-12.8,0-19.31,0-3.78.39-4.19,4.07-4.19q18.67,0,37.35,0c3.42,0,3.85.29,5,3.64q2.28,6.7,4.71,13.36c0,.06.11.1.42.36,1-2.63,1.84-5.2,2.78-7.74.86-2.32,1.55-4.7,2.44-7a3.65,3.65,0,0,1,3.76-2.61c.82,0,1.65,0,2.47,0H314.29c5.45,0,5.43,0,5.47,5.52,0,.91-.52,2.2.46,2.65.8.37,1.52-.74,2.24-1.23A40.32,40.32,0,0,1,345,109.21c20.24-.21,40.49,0,60.74-.11,2.68,0,4.27.89,5.31,3.45,2.54,6.25,5.28,12.42,7.93,18.63a5.34,5.34,0,0,1,.66,2c-.09-6.88-.07-13.77,0-20.66,0-2.75.57-3.31,3.33-3.33,10.58,0,21.15,0,31.72,0a5,5,0,0,1,4.52,2.41c2.3,3.49,4.42,7.11,7.18,10.93,0-3.47,0-6.48,0-9.49,0-3.34.48-3.83,3.74-3.84q15.42,0,30.82,0c3.27,0,3.73.49,3.74,3.85q0,39.13,0,78.28c0,3.37-.46,3.84-3.73,3.85-10.27,0-20.55,0-30.82,0a5.42,5.42,0,0,1-5.18-2.84c-2-3.33-4.06-6.6-6.54-10.26-.12,3.53,0,6.51-.08,9.48s-.51,3.57-3.54,3.58c-16,0-31.94,0-47.91,0a4.3,4.3,0,0,1-4.61-3.11c-.94-2.61-2.12-5.12-3.14-7.7a3,3,0,0,0-3.19-2.26c-3,0-6,0-9,0a3.12,3.12,0,0,0-3.24,2.23c-1.09,2.71-2.22,5.41-3.26,8.14a3.8,3.8,0,0,1-3.95,2.67c-11.63,0-23.25.24-34.87-.1A37.62,37.62,0,0,1,322,188.55a6.27,6.27,0,0,0-2.07-1.2,23.35,23.35,0,0,0-.17,4.41c-.12,2.76-.61,3.31-3.33,3.36-3.52.07-7.05,0-10.57,0-12.82,0-25.65,0-38.47,0a6.74,6.74,0,0,1-5.95-2.81c-2.31-3-4.72-5.93-7.34-9.09-.07,3.17,0,6-.06,8.83-.09,2.39-.59,2.87-3,3-.9,0-1.8,0-2.7,0H54.91c-5.51,0-5.5,0-7.53-5.06-.76-1.88-1.55-3.74-2.25-5.64a3.18,3.18,0,0,0-3.38-2.35c-2.92,0-5.85,0-8.77,0a3.26,3.26,0,0,0-3.43,2.31c-1,2.52-2.1,5-3,7.53a4.33,4.33,0,0,1-4.72,3.24c-5.78-.09-11.55,0-17.32,0-4.24,0-4.24,0-4.24,4.38V422.68q0,21.27,0,42.52c0,1.11-.2,2.27.45,3.3a2.49,2.49,0,0,0,2.07.66c.9,0,1.8,0,2.7,0q217.24,0,434.49,0c1.54,0,3.16-.37,4.63.48a4.82,4.82,0,0,1,.65,3.23q0,41.85,0,83.69C445.3,557.69,445.39,558.85,444.57,559.78Z"/><path class="cls-1" d="M444.57,559.78v-89.9c1-1.1,2.39-.7,3.61-.7q39.79,0,79.58,0c3,0,6,0,9,0,1.79,0,2.7-.66,2.57-2.51,0-.45,0-.9,0-1.35q0-80.6,0-161.19c0-1,.48-2.12-.55-2.92-2.68,1-5.07,2.59-7.82,3.41a35.56,35.56,0,0,1-10.39,1.67q-87.84,0-175.67.05a8,8,0,0,1-7.23-3.5c-2.05-2.83-4.35-5.49-6.9-8.56a64.34,64.34,0,0,0-.19,7.72c-.06,3.9-.38,4.27-4.23,4.27q-14.38,0-28.79,0c-3.47,0-3.9-.44-3.92-3.87,0-5.32,0-10.64,0-16,0-1.32-.22-2.29-1.92-1.67-5.67,2.08-11.56,2.36-17.52,2.18-.9,0-1.8,0-2.7,0-3.9,0-3.9,0-3.91,3.81,0,4,0,7.94,0,11.92,0,3.08-.51,3.6-3.51,3.6-16,0-32.09,0-48.13,0a5.51,5.51,0,0,1-4.65-2.25c-2.09-2.64-4-5.4-6.15-8-1.37-1.69-1.75-1.7-3.05,0-2,2.62-4,5.22-6,7.87a5.51,5.51,0,0,1-4.77,2.42q-41.83,0-83.67,0c-2.86,0-3.4-.56-3.4-3.48q-.06-39.48,0-78.95c0-3,.52-3.52,3.58-3.52q41.83,0,83.68,0a5.48,5.48,0,0,1,4.81,2.33c1.87,2.53,3.81,5,5.75,7.49s2,2.45,3.86.11,3.57-4.64,5.33-7a5.45,5.45,0,0,1,2.67-2.3,26.5,26.5,0,0,1,4.27-.13H534.8c4.52,0,4.52,0,4.52-4.6q0-141,0-282c0-1.23.43-2.59-.68-3.62a6.69,6.69,0,0,0-3.31-.38q-20.16,0-40.32,0c-1.24,0-2.57.26-3.63-.73a1.58,1.58,0,0,1,.34-2.36c.46-.39.85-.84,1.28-1.27q41.94-41.94,83.88-83.9c.63-.63,1.2-1.33,1.79-2,16.42,0,32.84,0,49.25,0,1.66,0,2.09.34,2.09,2.06q-.07,154.84,0,309.71,0,203,.06,406c0,2-.57,2.25-2.35,2.25Q536.11,559.75,444.57,559.78Z"/><path class="cls-2" d="M491.36-70.59c7.93,0,15.86.1,23.79.1,8.08,0,16.16,0,24.24-.07.62.64.32,1.43.32,2.14q0,143.61,0,287.2c0,2.42,0,2.42-2.66,2.42H216.57a6.69,6.69,0,0,0-2.88.2l-9.77,12.32c-2.82-3.66-5.65-7.22-8.33-10.89a4.06,4.06,0,0,0-3.72-1.84q-42.28.09-84.59,0c-2,0-2.47.42-2.47,2.44q.12,39.93,0,79.86c0,2,.55,2.43,2.48,2.42q42.18-.09,84.36,0a3.81,3.81,0,0,0,3.52-1.77c2.68-3.7,5.5-7.29,8.38-11.08,3,3.89,5.87,7.58,8.66,11.36a3.31,3.31,0,0,0,3,1.49q24.85-.07,49.72,0c1.75,0,2.1-.54,2.07-2.16-.1-5.17,0-10.35-.07-15.52,0-1.45.37-1.89,1.87-1.91,6.06-.07,12.15.54,18.16-.74a49.78,49.78,0,0,0,7.51-2.37v9.19c0,3.9.05,7.8,0,11.69,0,1.36.35,1.81,1.76,1.81q16-.09,31.94,0c1.56,0,1.86-.54,1.83-1.93-.08-3.6,0-7.2,0-10.94,1,.16,1.31,1,1.79,1.56,2.71,3.3,5.41,6.61,8,10a3.23,3.23,0,0,0,2.85,1.34q89,0,177.94-.06a30.22,30.22,0,0,0,18.5-5.89c.35-.05.59.09.63.44a19.45,19.45,0,0,1,0,2V466.86c0,2.7,0,2.7-2.6,2.7q-267.57,0-535.14,0c-.79,0-1.66.33-2.38-.31,0-1,.07-1.95.07-2.92q0-134.42,0-268.82c0-3.4-.42-2.95,3-3,6.68,0,13.35-.07,20,0a2.58,2.58,0,0,0,2.91-2c1.11-3.1,2.5-6.09,3.61-9.19A2.41,2.41,0,0,1,32,181.44c3.59.13,7.2.11,10.79,0a2.31,2.31,0,0,1,2.65,1.74c1.17,3.15,2.57,6.22,3.72,9.38a2.62,2.62,0,0,0,2.94,2c12.29-.07,24.59,0,36.89,0q80.76,0,161.51.06c2.36,0,2.91-.65,2.78-2.86-.19-3.29,0-6.59,0-10.23a33.55,33.55,0,0,1,4.39,5q2.91,3.44,5.67,7a2.56,2.56,0,0,0,2.27,1.08q25.75,0,51.51,0c1.54,0,1.94-.49,1.87-1.93-.09-2.23,0-4.48,0-6.62a.59.59,0,0,1,.89,0c7.39,5.92,15.95,8.39,25.28,8.46,10.65.07,21.3,0,31.94,0a2.33,2.33,0,0,0,2.6-1.79c1.19-3.23,2.56-6.39,3.77-9.61a2.17,2.17,0,0,1,2.42-1.72c3.74.1,7.5.11,11.24,0a2.19,2.19,0,0,1,2.43,1.73c1.27,3.28,2.67,6.51,3.93,9.79a2.06,2.06,0,0,0,2.26,1.6q25-.06,49.94,0c1.48,0,1.94-.4,1.91-1.88a94.74,94.74,0,0,1,.45-12.65c2.2,3.41,4.69,6.68,6.51,10.29s4.17,4.43,8,4.31c9.74-.3,19.5-.13,29.24-.06,1.62,0,2.19-.32,2.18-2.08q-.09-40.38,0-80.76c0-1.39-.27-1.93-1.84-1.92q-16.53.1-33.06,0c-1.43,0-1.93.3-1.89,1.83a112.62,112.62,0,0,1-.36,12.81c-2.74-4.25-5.55-8.46-8.2-12.76a3.45,3.45,0,0,0-3.38-1.9q-16.18.14-32.39,0c-1.9,0-2.34.54-2.31,2.38.11,7.64.05,15.28.05,23.07-.89-.33-.93-1.05-1.17-1.6-3.15-7.35-6.32-14.71-9.42-22.09a2.42,2.42,0,0,0-2.64-1.75c-20.39,0-40.79,0-61.19.07a40.48,40.48,0,0,0-25.87,8.78c-.24.18-.49.34-.75.5,0,0-.13,0-.53,0,0-2.53-.06-5.11,0-7.68.05-1.3-.4-1.78-1.66-1.61a8.51,8.51,0,0,1-1.13,0q-94.92,0-189.85,0c-2,0-2.86.43-3.48,2.38-1.59,5.06-3.47,10-5.23,15a2.3,2.3,0,0,1-.83,1.44c-2-5.72-4.06-11.38-6-17.1a2.22,2.22,0,0,0-2.55-1.76q-19.92.09-39.82,0c-1.76,0-2.09.55-2.07,2.16.08,7.71,0,15.43,0,23.24-.93-.32-.92-1.08-1.16-1.64-3.14-7.29-6.3-14.56-9.35-21.88a2.54,2.54,0,0,0-2.78-1.88q-15.4.14-30.82,0a2.66,2.66,0,0,0-2.94,1.93Q10.23,133.13,1,154.46a5.76,5.76,0,0,1-1.33,2.06V154.4q0-111,0-222c0-3.28-.38-2.86,2.88-2.86H488.22C489.27-70.49,490.31-70.55,491.36-70.59Z"/><path class="cls-3" d="M92.88,138c0,14.88,0,29.43,0,44,0,1.68-.41,2.16-2.1,2.11-4-.13-8.1-.07-12.15,0-1.13,0-1.74-.09-1.73-1.52q.06-30.37,0-60.74c0-1.64.82-1.57,1.95-1.57,7.27,0,14.55.07,21.82,0,1.6,0,2.18.57,2.67,2,4.21,12.15,8.5,24.29,12.77,36.42.19.54.4,1.06.79,2.06,1.76-5,3.39-9.55,5-14.12,2.84-8.12,5.7-16.23,8.48-24.38.47-1.39,1.05-2,2.64-2,7.2.1,14.4.09,21.6,0,1.55,0,2,.37,2,2q-.07,30,0,60.07c0,1.52-.48,1.85-1.89,1.82-4-.09-7.95-.13-11.92,0-1.84.07-2.38-.41-2.37-2.32.09-13.57,0-27.14,0-40.71v-2.67c-.81.42-.82,1.11-1,1.65-5,13.88-9.93,27.75-14.78,41.66-.66,1.89-1.51,2.52-3.49,2.4-3.22-.19-6.45-.13-9.67,0a2.21,2.21,0,0,1-2.56-1.77q-7.24-20.65-14.63-41.25A6.78,6.78,0,0,0,92.88,138Z"/><path class="cls-3" d="M476.9,158.88c0-12.07.06-24.14,0-36.2,0-2.05.57-2.51,2.51-2.43,3.89.15,7.79.09,11.69,0,1.3,0,1.86.26,1.85,1.72q-.06,30.26,0,60.51c0,1.31-.44,1.62-1.67,1.61-5.47-.06-11-.09-16.42,0-1.45,0-1.94-.78-2.55-1.73Q460.64,164.22,449,146.06c-.44-.69-.9-1.36-1.41-2.14-.56.63-.31,1.32-.31,1.92,0,12.08,0,24.15,0,36.22,0,1.73-.48,2.12-2.12,2.07-4.12-.12-8.25-.08-12.37,0-1.24,0-1.85-.12-1.85-1.65q.09-30.26,0-60.52c0-1.24.32-1.69,1.63-1.67,5.85.06,11.7.08,17.55,0,1.47,0,1.9.93,2.49,1.85l22.25,34.57c.52.8,1.06,1.59,1.58,2.38Z"/><path class="cls-3" d="M269.17,160.91l20.6,23.18h-7.44c-3.6,0-7.2-.06-10.8,0a3.43,3.43,0,0,1-3-1.41c-5.41-6.51-10.91-13-16.38-19.42-1.28-1.52-5.33-2.49-7.11-1.74-1,.42-.57,1.29-.57,1.94,0,6.23-.08,12.45,0,18.67,0,1.62-.46,2-2,2-4.12-.11-8.25-.07-12.37,0-1.26,0-1.86-.16-1.86-1.67q.07-30.25,0-60.51c0-1.05.12-1.68,1.43-1.66,12.29.17,24.6-.48,36.87.31,11.07.72,18,7.62,19.11,18.22,1.07,10.23-4.76,18.58-15.19,21.75Z"/><path class="cls-3" d="M167.24,152c0-9.82,0-19.64,0-29.45,0-1.89.54-2.35,2.39-2.34q23.72.1,47.44,0c1.59,0,2.24.27,2.16,2-.15,3.44-.16,6.9,0,10.34.08,1.79-.57,2-2.16,2-10.42-.07-20.84,0-31.25-.08-1.91,0-2.49.53-2.31,2.38.25,2.58-1.06,6,.51,7.55s4.84.37,7.37.39c8.32,0,16.64.06,24.95,0,1.59,0,2,.4,2,2-.13,3.37-.13,6.75,0,10.12.05,1.57-.39,2-2,2-10.19-.08-20.38,0-30.57-.08-1.71,0-2.41.35-2.27,2.2a52.27,52.27,0,0,1,0,6.74c-.08,1.47.38,1.88,1.86,1.87,10.42-.06,20.83.05,31.25-.09,2.27,0,2.72.64,2.61,2.73-.18,3.36-.1,6.74,0,10.11,0,1.26-.31,1.65-1.61,1.64q-24.28-.06-48.57,0c-1.61,0-1.79-.62-1.78-2C167.26,172.13,167.24,162.08,167.24,152Z"/><path class="cls-3" d="M429.22,184.09c-5.75,0-11.3,0-16.84,0-1.17,0-1.54-.57-1.89-1.46-1.36-3.41-2.82-6.77-4.12-10.2a1.89,1.89,0,0,0-2.1-1.45c-8.55.05-17.09.07-25.64,0a2.18,2.18,0,0,0-2.4,1.73c-1.26,3.36-2.67,6.66-4,10-.32.84-.64,1.38-1.71,1.37-5.46-.05-10.93,0-16.7,0,1.41-3.35,2.71-6.5,4.06-9.63q11.16-26.1,22.32-52.2c.6-1.43,1.27-2.05,2.92-2,5.77.12,11.55.06,17.32,0,1.06,0,1.76.13,2.25,1.28q13.14,30.84,26.37,61.66A3.63,3.63,0,0,1,429.22,184.09Z"/><path class="cls-3" d="M75.2,184.09c-5.82,0-11.49,0-17.16,0-1.16,0-1.32-.75-1.62-1.49-1.36-3.32-2.78-6.62-4-10A2.16,2.16,0,0,0,49.94,171q-12.7.09-25.4,0a2,2,0,0,0-2.29,1.54c-1.3,3.42-2.72,6.8-4.06,10.21-.29.73-.49,1.35-1.49,1.34-5.67,0-11.33,0-17,0C8.56,163.42,17.36,143,26.08,122.45c.68-1.6,1.41-2.26,3.24-2.21,5.7.14,11.39.07,17.09,0,1.06,0,1.75.15,2.24,1.29q13.11,30.76,26.29,61.49A7.31,7.31,0,0,1,75.2,184.09Z"/><path class="cls-3" d="M353.69,169.67c-2.18,4.71-4.27,9.16-6.29,13.64-.43.94-1.17.76-1.89.77-16.07.3-27.95-10.47-29.15-26.51-.43-5.69-.41-11.36,1.27-16.92,3.39-11.29,12.31-18.79,24-20,7.39-.75,14.82-.23,22.23-.39,1.07,0,1.43.36,1.42,1.43-.05,4-.08,7.94,0,11.91,0,1.47-.72,1.5-1.8,1.5-4.8,0-9.6,0-14.39,0-11.89-.16-17.16,7.39-16.83,18.24a25.22,25.22,0,0,0,.82,5.53c1.69,6.53,6.93,10.52,14,10.8C349.22,169.74,351.3,169.67,353.69,169.67Z"/><path class="cls-3" d="M292.13,152.36c0-10,.05-19.92,0-29.88,0-1.79.49-2.29,2.25-2.23,4,.13,8.09.08,12.13,0,1.27,0,1.86.18,1.86,1.68q-.07,30.33,0,60.66c0,1.21-.38,1.52-1.54,1.5-4.26-.06-8.53-.09-12.8,0-1.49,0-1.89-.41-1.88-1.88C292.16,172.28,292.13,162.32,292.13,152.36Z"/><path class="cls-4" d="M-.4,469.24a5.45,5.45,0,0,0,2.65.27q267.33,0,534.65.06c2.25,0,2.83-.52,2.83-2.81q-.11-82.22-.09-164.42c0-.86.61-2-.58-2.6.31-.33.71-.44.8.09a12.84,12.84,0,0,1,.1,2.24V466.7c0,3.1,0,3.1-3.19,3.1H447.49c-1,0-1.95.05-2.92.08s-2.1-.08-3.15-.08q-219.45,0-438.89,0C1.55,469.78.41,470.28-.4,469.24Z"/><path class="cls-3" d="M346,272.09l20.56,23.13c-6.72,0-13,0-19.24,0-1,0-1.41-.74-1.92-1.35q-8.44-9.94-16.85-19.9c-.83-1-5.9-1.9-6.89-1.2-.67.48-.34,1.25-.34,1.89,0,6.22-.05,12.44,0,18.67,0,1.39-.24,1.95-1.8,1.91-4.2-.12-8.4-.09-12.6,0-1.38,0-1.92-.24-1.92-1.81q.09-30,0-60.05c0-1.08,0-1.81,1.49-1.81,12,.06,24-.18,36,.11,10.82.27,18.71,7.32,19.78,17C363.59,260.6,358,268.75,346,272.09Z"/><path class="cls-3" d="M369,263.45c0-9.9,0-19.8-.05-29.69,0-1.84.58-2.19,2.26-2.18q23.74.09,47.47,0c1.73,0,2.35.4,2.27,2.22-.15,3.36-.12,6.75,0,10.12.06,1.58-.43,2-2,2-10.5-.07-21,0-31.5-.07-1.67,0-2.45.28-2.28,2.17a36.19,36.19,0,0,1,0,6.07c-.13,1.68.38,2.13,2.08,2.12,10.13-.09,20.25,0,30.37-.1,2.08,0,2.53.62,2.44,2.53-.15,3.07-.14,6.15,0,9.22.08,1.73-.39,2.28-2.2,2.26-10.12-.09-20.25,0-30.37-.09-1.89,0-2.46.5-2.31,2.35a45.77,45.77,0,0,1,0,6.52c-.11,1.64.47,2,2,1.95,10.5-.07,21,0,31.5-.09,1.95,0,2.36.58,2.29,2.39-.15,3.44-.11,6.9,0,10.34,0,1.4-.41,1.75-1.78,1.75q-24.18-.08-48.36,0c-1.52,0-1.84-.46-1.83-1.89C369,283.4,369,273.42,369,263.45Z"/><path class="cls-3" d="M115.6,263.28c0-9.89,0-19.79,0-29.68,0-1.54.36-2,2-2q24,.09,47.9,0c1.47,0,2.13.26,2.07,1.93-.13,3.52-.12,7.05,0,10.57.05,1.52-.49,1.85-1.92,1.84-10.19,0-20.38,0-30.58,0-3.14,0-3.14,0-3.14,3.26,0,1.65.11,3.3,0,4.94s.35,2.14,2.07,2.13c10.12-.09,20.24,0,30.35-.09,1.87,0,2.45.47,2.36,2.34-.15,3.22-.13,6.45,0,9.67.07,1.6-.43,2-2,2-10.2-.07-20.39,0-30.58-.08-1.8,0-2.33.48-2.21,2.24a52.27,52.27,0,0,1,0,6.74c-.09,1.52.45,1.84,1.88,1.83,10.49-.05,21,0,31.48-.07,1.87,0,2.41.45,2.32,2.33-.16,3.44-.1,6.89,0,10.34,0,1.3-.22,1.81-1.69,1.81q-24.28-.09-48.57,0c-1.53,0-1.65-.61-1.65-1.85C115.62,283.37,115.6,273.32,115.6,263.28Z"/><path class="cls-3" d="M462.32,231.61c5.85,0,11.7,0,17.54,0,1.44,0,1.93.23,1.22,1.74-1.7,3.59-3.34,7.21-4.85,10.88a2.41,2.41,0,0,1-2.66,1.72q-12.72-.1-25.42,0c-4.11,0-6.63,3-5.69,6.47.64,2.38,2.58,3.74,5.46,3.79,5.69.11,11.39-.18,17.08.19,10.84.7,17.46,6.67,17.86,16.14.51,12.25-5.68,20.54-16.56,22.29a59.44,59.44,0,0,1-9.42.43c-8.92,0-17.85,0-26.77,0-1.66,0-2.21-.36-2.14-2.09.15-3.37.18-6.75,0-10.12-.11-2,.64-2.28,2.41-2.27,10.2.09,20.4.05,30.59,0,3.61,0,5.79-2,5.74-5.18s-2.14-5.05-5.64-5.12c-5.1-.1-10.2-.07-15.3,0a24.67,24.67,0,0,1-6-.66C429,267.24,425,258.32,426.33,248.58c1.44-10.48,9.4-16.82,20.69-17C452.12,231.56,457.22,231.61,462.32,231.61Z"/><path class="cls-3" d="M505.11,246.13c-3.14.69-5.1,2.7-4.68,5.18.54,3.14,2.17,4.86,5.6,4.86l16.18-.05c1.08.43,2.24,0,3.33.31,2.05.63,4.14,1,6.15,1.85,7.86,3.28,10.16,11.68,9.45,18.51-.59,5.62-2.63,10.65-7.42,14.16a22.23,22.23,0,0,1-13.25,4.24c-10.79.1-21.58,0-32.37.06-1.34,0-1.83-.28-1.78-1.72.1-3.59.12-7.19,0-10.79-.06-1.62.46-2,2-1.95,10.41.07,20.83,0,31.24,0a5.06,5.06,0,0,0,4.85-2.66,4.84,4.84,0,0,0-.28-5.32,5.69,5.69,0,0,0-5.07-2.35c-5.25,0-10.49,0-15.74,0a21.83,21.83,0,0,1-8.73-1.79,15.45,15.45,0,0,1-9.1-9.95c-3.56-11.85,1.47-24.14,15.38-26.66.59-.11,1.17-.25,1.76-.38,5.16-.29,10.33-.09,15.49-.12q10-.06,20,0c.56,0,1.56-.68,1.75.61a136.67,136.67,0,0,0-5.81,13.31c-.54.82-1.36.4-2,.4-8.16,0-16.32,0-24.48,0A6.1,6.1,0,0,0,505.11,246.13Z"/><path class="cls-3" d="M240.24,263.5c0-10,0-19.94,0-29.91,0-1.56.39-2,2-2,11.69.06,23.39,0,35.08,0,12.27.1,20.32,7.88,20.85,20.85.49,11.72-6.92,20.12-18.18,21.65-6.93.94-13.92.33-20.88.32-2.26,0-2.68.65-2.62,2.74.16,5.39,0,10.79.09,16.19,0,1.44-.34,1.92-1.84,1.88-4.13-.11-8.25-.12-12.37,0-1.65.05-2.15-.34-2.13-2.07C240.28,283.29,240.24,273.4,240.24,263.5Z"/><path class="cls-3" d="M238.73,231.61c-4.57,5.69-8.77,10.94-13,16.17-3.67,4.56-7.28,9.15-11,13.63-1.05,1.25-1.15,2-.07,3.34,7.45,9.2,14.79,18.48,22.17,27.74.63.8,1.24,1.62,2.1,2.73-6.78,0-13.19,0-19.61,0-.94,0-1.25-.68-1.69-1.25q-6.44-8.39-12.85-16.78c-.36-.46-.74-.91-1.27-1.55-3.52,4.61-7.31,8.9-10.3,13.7s-6.51,6.72-12.09,6c-3.75-.51-7.63-.1-11.45-.11a4.19,4.19,0,0,1-.47,0c-.26-.75.43-1.05.76-1.46,7.56-9.49,15.12-19,22.77-28.41,1.07-1.32,1.24-2.1.09-3.52-7.65-9.42-15.19-18.93-22.75-28.43-.35-.44-.92-.78-.93-1.73,4.11,0,8.25.42,12.27-.1,5.73-.73,9.48,1.28,12.47,6.15,2.57,4.19,6,7.87,8.91,11.84.93,1.27,1.41,1.32,2.37,0,4.09-5.45,8.3-10.82,12.39-16.27a3.71,3.71,0,0,1,3.34-1.7C226.64,231.67,232.4,231.61,238.73,231.61Z"/><path class="cls-4" d="M213.69,221.41c.85-.72,1.86-.35,2.79-.35q160,0,320.07,0c3.12,0,3.12,0,3.12-3.06q0-142.71,0-285.43a6.7,6.7,0,0,0-.27-3.11c1,.73.55,1.8.55,2.71q0,47.79,0,95.58,0,95.25,0,190.5c0,3.59.33,3.2-3.3,3.2H216.39Z"/><path class="cls-4" d="M539.88,232.21c-.45-1.11-1.42-.56-2.12-.56q-17.57,0-35.13,0c.49-.48,1.11-.36,1.7-.36,11.39,0,22.79,0,34.18,0C539,231.36,540.24,230.66,539.88,232.21Z"/><path class="cls-1" d="M505.11,246.13a8.76,8.76,0,0,1,3.53-.22c7.61,0,15.21,0,22.82,0a4.36,4.36,0,0,0,2.61-.37c-.33.85-1.08.65-1.72.65Q518.73,246.17,505.11,246.13Z"/><path class="cls-1" d="M525.54,256.43a9.83,9.83,0,0,1-3.33-.31C523.32,256.2,524.48,255.74,525.54,256.43Z"/><path class="cls-1" d="M254.17,147.64c-2.69,0-5.39,0-8.08,0-1.18,0-1.76-.18-1.72-1.56.1-3.29.09-6.59,0-9.88,0-1.35.52-1.6,1.71-1.59,5.32.05,10.63,0,16,0s8.31,3.81,7.1,8.28c-.75,2.74-3,4.47-6.44,4.61-2.83.13-5.68,0-8.53,0Z"/><path class="cls-1" d="M400.05,157H382.7c2.86-7.08,5.64-14,8.65-21.45C394.34,142.91,397.14,149.82,400.05,157Z"/><path class="cls-1" d="M37.29,135.53,46,156.93H28.66C31.48,149.93,34.27,143,37.29,135.53Z"/><path class="cls-1" d="M331.1,258.78c-2.77,0-5.54,0-8.31,0-1.16,0-1.56-.28-1.53-1.49.08-3.29.07-6.59,0-9.88,0-1.16.31-1.57,1.51-1.56,5.54.06,11.09-.07,16.62.06,4.17.1,6.85,2.84,6.79,6.54s-2.76,6.19-7,6.3H331.1Z"/><path class="cls-1" d="M266.63,260.13c-2.92,0-5.83,0-8.75,0-1.05,0-1.43-.29-1.41-1.38.06-3.81.07-7.63,0-11.44,0-1.28.53-1.46,1.61-1.45,5.53,0,11.07,0,16.6,0,4.5.07,7.19,3,7.11,7.45-.09,4.12-2.86,6.71-7.31,6.75C271.87,260.15,269.25,260.13,266.63,260.13Z"/><path class="cls-1" d="M444.32,559.28q-265.87,0-531.76.05c-1.68,0-2.06-.38-2.06-2.07q.06-357.42,0-714.85c0-1.69.38-2.07,2.06-2.07q332.84.07,665.66,0c.21,1.39-1,1.93-1.72,2.67q-16.08,16.15-32.21,32.25-25.08,25.08-50.16,50.17c-1.25,1.25-2.78,2.31-3,4.3,0,.35-.55.46-.91.56a26.63,26.63,0,0,1-4.72.17H5.84c-5.71,0-5.17-.43-5.17,5.23q0,107.73,0,215.44c0,1.19,0,2.39-.06,3.37,6-14.08,12.16-28.36,18.26-42.64a3.82,3.82,0,0,1,3.94-2.65c10,0,19.92,0,29.88,0,1.67,0,3.16.35,3.91,2,3.18,7.16,6.26,14.36,9.16,21.44,0-6.28,0-12.78,0-19.29,0-3.77.4-4.18,4.07-4.19q18.65,0,37.29,0c3.42,0,3.85.3,5,3.64q2.28,6.7,4.71,13.34c0,.06.1.1.41.36,1-2.62,1.84-5.19,2.78-7.73.86-2.31,1.54-4.69,2.44-7a3.63,3.63,0,0,1,3.75-2.6c.82,0,1.65,0,2.47,0H314.23c5.44,0,5.42,0,5.46,5.52,0,.91-.52,2.19.46,2.65.8.37,1.52-.75,2.24-1.24a40.25,40.25,0,0,1,22.47-6.85c20.22-.22,40.44,0,60.66-.11,2.67,0,4.27.88,5.31,3.44,2.53,6.24,5.27,12.4,7.91,18.6a5.16,5.16,0,0,1,.66,2c-.09-6.88-.07-13.76,0-20.64,0-2.75.57-3.31,3.33-3.32,10.56-.05,21.12,0,31.68,0a5,5,0,0,1,4.5,2.41c2.31,3.49,4.42,7.1,7.18,10.92,0-3.46,0-6.47,0-9.48,0-3.33.48-3.82,3.74-3.83q15.39,0,30.77,0c3.27,0,3.73.49,3.73,3.84q0,39.09,0,78.18c0,3.36-.46,3.83-3.72,3.84-10.26,0-20.52,0-30.78,0a5.44,5.44,0,0,1-5.17-2.84c-2-3.32-4.06-6.59-6.53-10.24-.12,3.52,0,6.49-.08,9.46s-.51,3.57-3.53,3.57c-15.95,0-31.9,0-47.85,0a4.31,4.31,0,0,1-4.6-3.11c-.94-2.6-2.12-5.12-3.13-7.69a3.07,3.07,0,0,0-3.19-2.26c-3,0-6,0-9,0a3.13,3.13,0,0,0-3.23,2.23c-1.08,2.71-2.21,5.41-3.26,8.13a3.78,3.78,0,0,1-3.94,2.67c-11.61,0-23.22.24-34.82-.1a37.56,37.56,0,0,1-19.61-6.49,6.11,6.11,0,0,0-2.06-1.19,23.21,23.21,0,0,0-.17,4.4c-.12,2.75-.61,3.3-3.32,3.36-3.52.07-7,0-10.56,0-12.81,0-25.61-.05-38.42,0a6.74,6.74,0,0,1-5.94-2.81c-2.3-3-4.71-5.92-7.33-9.08-.07,3.17.05,6,0,8.82-.09,2.39-.6,2.87-3,3-.9.05-1.8,0-2.7,0H55.21c-5.5,0-5.5,0-7.52-5.06-.76-1.87-1.55-3.73-2.25-5.63a3.17,3.17,0,0,0-3.37-2.35q-4.38.07-8.76,0a3.25,3.25,0,0,0-3.42,2.31c-1,2.51-2.1,5-3,7.52a4.33,4.33,0,0,1-4.71,3.24c-5.76-.09-11.53,0-17.3,0-4.23,0-4.23,0-4.23,4.37V422.37q0,21.24,0,42.46a5.85,5.85,0,0,0,.45,3.3,2.5,2.5,0,0,0,2.07.65H5.88q216.95,0,433.89,0c1.55,0,3.16-.36,4.62.48a4.78,4.78,0,0,1,.66,3.23q0,41.79,0,83.57C445.05,557.19,445.15,558.35,444.32,559.28Z"/><path class="cls-1" d="M444.32,559.28V469.51c1-1.1,2.39-.7,3.61-.71q39.74,0,79.47,0c3,0,6,0,9,0,1.79,0,2.7-.66,2.57-2.51,0-.45,0-.9,0-1.35q0-80.49,0-161c0-1,.48-2.11-.55-2.91-2.68,1-5.07,2.58-7.81,3.41a35.81,35.81,0,0,1-10.38,1.66q-87.7,0-175.43.05a8,8,0,0,1-7.21-3.5c-2.05-2.82-4.35-5.48-6.89-8.54a60.28,60.28,0,0,0-.19,7.71c-.07,3.89-.38,4.26-4.22,4.26q-14.39,0-28.76,0c-3.47,0-3.9-.44-3.92-3.86,0-5.32,0-10.63,0-15.95,0-1.32-.22-2.29-1.92-1.67-5.66,2.08-11.55,2.36-17.5,2.17-.89,0-1.79,0-2.69,0-3.9,0-3.9,0-3.9,3.8,0,4,0,7.94,0,11.9,0,3.08-.51,3.6-3.5,3.6-16,0-32,0-48.07,0a5.49,5.49,0,0,1-4.63-2.24c-2.1-2.64-4-5.4-6.15-8-1.37-1.69-1.75-1.7-3.05,0-2,2.61-4,5.2-6,7.85a5.48,5.48,0,0,1-4.76,2.42q-41.77,0-83.56,0c-2.85,0-3.39-.55-3.39-3.47q-.06-39.44,0-78.85c0-3,.52-3.51,3.58-3.51q41.78,0,83.56,0a5.48,5.48,0,0,1,4.8,2.33c1.87,2.52,3.81,5,5.74,7.48s2,2.45,3.86.1,3.56-4.62,5.32-7a5.45,5.45,0,0,1,2.67-2.3,26.38,26.38,0,0,1,4.26-.13H534.43c4.51,0,4.51,0,4.51-4.59q0-140.82,0-281.64c0-1.23.43-2.58-.68-3.61a6.53,6.53,0,0,0-3.3-.39q-20.13,0-40.27,0c-1.23,0-2.56.26-3.62-.72a1.6,1.6,0,0,1,.34-2.36c.46-.39.85-.84,1.28-1.27l83.77-83.78c.63-.63,1.19-1.33,1.78-2,16.4,0,32.79,0,49.19,0,1.65,0,2.08.34,2.08,2q-.07,154.65,0,309.28,0,202.71.06,405.41c0,2-.56,2.25-2.35,2.25Q535.74,559.25,444.32,559.28Z"/><path class="cls-2" d="M491.05-70.21c7.92,0,15.84.09,23.76.1,8.07,0,16.14,0,24.21-.07.62.63.31,1.43.31,2.14q0,143.4,0,286.8c0,2.41,0,2.41-2.66,2.41h-320a6.68,6.68,0,0,0-2.88.2L204,233.69c-2.81-3.66-5.64-7.22-8.32-10.88A4,4,0,0,0,192,221q-42.24.09-84.47,0c-2,0-2.47.41-2.47,2.43q.12,39.87,0,79.75c0,2,.55,2.42,2.47,2.41q42.12-.09,84.25,0a3.85,3.85,0,0,0,3.52-1.77c2.67-3.7,5.48-7.28,8.36-11.07,3,3.88,5.86,7.57,8.65,11.34a3.28,3.28,0,0,0,3,1.49q24.82-.07,49.65,0c1.75,0,2.09-.54,2.06-2.15-.1-5.17,0-10.34-.07-15.5,0-1.45.37-1.89,1.88-1.91,6-.07,12.12.54,18.13-.74a49.67,49.67,0,0,0,7.5-2.37v9.18c0,3.89.05,7.79,0,11.68,0,1.35.36,1.81,1.76,1.8q16-.07,31.9,0c1.55,0,1.86-.55,1.82-1.94-.08-3.59,0-7.18,0-10.92,1,.16,1.31,1,1.78,1.56,2.71,3.29,5.41,6.6,8.05,9.95a3.19,3.19,0,0,0,2.83,1.33q88.86,0,177.71-.05a30.15,30.15,0,0,0,18.46-5.89c.35-.05.6.09.64.44.06.67,0,1.35,0,2V466.49c0,2.7,0,2.7-2.6,2.7q-267.19,0-534.4,0c-.78,0-1.66.34-2.37-.31,0-1,.07-1.94.07-2.91q0-134.22,0-268.44c0-3.4-.43-2.95,3-3,6.67,0,13.33-.07,20,0a2.56,2.56,0,0,0,2.9-2c1.1-3.09,2.49-6.08,3.6-9.17a2.4,2.4,0,0,1,2.74-1.93c3.59.13,7.19.11,10.78,0a2.31,2.31,0,0,1,2.65,1.73c1.16,3.15,2.56,6.22,3.71,9.37a2.62,2.62,0,0,0,2.93,2c12.28-.07,24.56,0,36.84,0q80.64,0,161.29.06c2.35,0,2.9-.65,2.77-2.86-.19-3.28-.05-6.58-.05-10.22a33.55,33.55,0,0,1,4.39,5q2.9,3.42,5.66,7a2.56,2.56,0,0,0,2.27,1.08q25.73,0,51.44,0c1.53,0,1.93-.49,1.87-1.92-.1-2.23,0-4.47,0-6.61a.59.59,0,0,1,.89,0c7.38,5.92,15.93,8.38,25.25,8.44,10.63.07,21.26,0,31.89.06a2.34,2.34,0,0,0,2.6-1.79c1.18-3.22,2.56-6.38,3.76-9.59a2.18,2.18,0,0,1,2.41-1.73c3.75.11,7.49.12,11.23,0a2.19,2.19,0,0,1,2.43,1.73c1.26,3.27,2.67,6.49,3.92,9.77a2.06,2.06,0,0,0,2.27,1.6q24.93-.07,49.87,0c1.47,0,1.93-.4,1.9-1.88a94.65,94.65,0,0,1,.45-12.64c2.19,3.41,4.68,6.68,6.5,10.28s4.16,4.43,8,4.31c9.73-.3,19.47-.14,29.2-.07,1.61,0,2.18-.31,2.18-2.07q-.09-40.32,0-80.64c0-1.39-.27-1.94-1.83-1.93q-16.52.12-33,0c-1.42,0-1.93.31-1.89,1.83a110,110,0,0,1-.35,12.79c-2.74-4.24-5.54-8.44-8.19-12.73a3.43,3.43,0,0,0-3.37-1.9q-16.18.12-32.35,0c-1.9,0-2.33.53-2.31,2.37.11,7.63.05,15.26.05,23-.89-.33-.93-1.05-1.16-1.59-3.15-7.35-6.32-14.69-9.41-22.07a2.42,2.42,0,0,0-2.64-1.74c-20.37,0-40.73,0-61.1.06-9.54,0-18.29,2.73-25.84,8.77a8.87,8.87,0,0,1-.74.51s-.14,0-.54,0c0-2.53-.06-5.1,0-7.66,0-1.3-.41-1.79-1.67-1.62a8.37,8.37,0,0,1-1.12,0q-94.8,0-189.59,0c-2,0-2.86.44-3.47,2.38-1.59,5.06-3.47,10-5.22,15a2.35,2.35,0,0,1-.83,1.44c-2-5.71-4.06-11.37-6-17.07a2.21,2.21,0,0,0-2.55-1.76c-13.25,0-26.51.07-39.76,0-1.76,0-2.08.54-2.07,2.15.08,7.71,0,15.41,0,23.21-.92-.32-.91-1.08-1.16-1.64-3.13-7.27-6.28-14.54-9.34-21.85a2.53,2.53,0,0,0-2.77-1.87q-15.37.12-30.77,0a2.66,2.66,0,0,0-2.94,1.93c-6,14.25-12.16,28.45-18.26,42.66a5.76,5.76,0,0,1-1.33,2.06V-67.25c0-3.27-.38-2.85,2.88-2.85h485C489-70.11,490-70.18,491.05-70.21Z"/><path class="cls-3" d="M93.13,138.13c0,14.86,0,29.39,0,43.91,0,1.68-.41,2.17-2.1,2.11-4-.13-8.09-.07-12.13,0-1.14,0-1.74-.09-1.74-1.52q.08-30.33,0-60.65c0-1.64.82-1.57,1.94-1.57,7.27,0,14.53.07,21.79,0,1.6,0,2.18.57,2.67,2,4.21,12.14,8.49,24.25,12.75,36.37.19.53.41,1.06.79,2.06,1.76-5,3.38-9.54,5-14.1,2.84-8.11,5.69-16.22,8.46-24.35.48-1.39,1-2,2.64-2,7.19.1,14.38.09,21.57,0,1.55,0,2,.37,2,2q-.08,30,0,60c0,1.53-.48,1.85-1.89,1.82-4-.09-7.94-.13-11.91,0-1.83.07-2.37-.41-2.36-2.31.09-13.56.05-27.11.05-40.66v-2.66c-.81.41-.82,1.1-1,1.64-4.94,13.86-9.91,27.71-14.76,41.61-.66,1.89-1.51,2.51-3.49,2.39-3.2-.19-6.44-.13-9.65,0a2.21,2.21,0,0,1-2.56-1.78q-7.23-20.61-14.6-41.19A6.86,6.86,0,0,0,93.13,138.13Z"/><path class="cls-3" d="M476.61,158.94c0-12.05.06-24.11-.05-36.15,0-2.05.57-2.51,2.51-2.43,3.88.15,7.78.09,11.67,0,1.3,0,1.86.26,1.85,1.71q-.06,30.22,0,60.43c0,1.31-.44,1.63-1.67,1.61-5.46,0-10.93-.09-16.4,0-1.44,0-1.93-.77-2.54-1.73q-11.61-18.15-23.23-36.28c-.44-.69-.89-1.37-1.41-2.14-.55.63-.3,1.32-.31,1.92,0,12.05,0,24.11,0,36.17,0,1.72-.48,2.11-2.12,2.06-4.12-.12-8.24-.08-12.36,0-1.24,0-1.85-.12-1.84-1.65q.08-30.21,0-60.43c0-1.24.33-1.69,1.63-1.67,5.84.06,11.69.08,17.52,0,1.48,0,1.91.93,2.5,1.84l22.22,34.53c.51.8,1.05,1.59,1.58,2.38Z"/><path class="cls-3" d="M269.17,161l20.57,23.15h-7.43c-3.59,0-7.19-.06-10.78,0a3.45,3.45,0,0,1-3-1.4c-5.4-6.5-10.89-12.94-16.35-19.4-1.29-1.52-5.33-2.49-7.11-1.74-1,.42-.56,1.29-.57,1.94,0,6.22-.08,12.43,0,18.65,0,1.61-.46,2-2,2-4.12-.11-8.24-.08-12.36,0-1.25,0-1.86-.15-1.85-1.67q.07-30.21,0-60.43c0-1,.12-1.67,1.42-1.65,12.28.17,24.57-.48,36.83.31,11,.72,18,7.61,19.07,18.19,1.08,10.22-4.74,18.56-15.16,21.72Z"/><path class="cls-3" d="M167.38,152.11c0-9.81.05-19.61,0-29.41,0-1.89.55-2.35,2.39-2.34q23.69.11,47.37,0c1.59,0,2.25.27,2.16,2-.15,3.43-.16,6.89,0,10.32.08,1.79-.57,2-2.16,2-10.4-.07-20.8,0-31.2-.08-1.91,0-2.49.53-2.31,2.37.25,2.58-1,6,.51,7.54s4.83.38,7.36.39c8.3,0,16.61.06,24.92,0,1.58,0,2,.4,2,2-.13,3.36-.12,6.73,0,10.1,0,1.57-.38,2-2,2-10.18-.08-20.36,0-30.54-.08-1.7,0-2.4.35-2.26,2.19a52.12,52.12,0,0,1,0,6.73c-.08,1.48.38,1.88,1.86,1.87,10.4-.06,20.8.05,31.2-.09,2.27,0,2.72.64,2.61,2.72-.18,3.36-.1,6.74,0,10.1,0,1.26-.31,1.65-1.61,1.65q-24.25-.07-48.5,0c-1.61,0-1.79-.62-1.78-2C167.4,172.16,167.38,162.14,167.38,152.11Z"/><path class="cls-3" d="M429,184.11c-5.75,0-11.28,0-16.82,0-1.17,0-1.53-.57-1.89-1.46-1.36-3.4-2.81-6.76-4.1-10.18a1.9,1.9,0,0,0-2.11-1.45c-8.53,0-17.07.07-25.6,0a2.18,2.18,0,0,0-2.4,1.72c-1.26,3.36-2.67,6.66-4,10-.33.85-.64,1.38-1.71,1.37-5.45,0-10.91,0-16.68,0,1.41-3.34,2.71-6.49,4-9.62q11.16-26.06,22.29-52.12c.61-1.43,1.28-2.05,2.93-2,5.76.12,11.52.06,17.29,0,1.06,0,1.76.13,2.25,1.28q13.13,30.79,26.33,61.57A4.36,4.36,0,0,1,429,184.11Z"/><path class="cls-3" d="M75.47,184.11c-5.81,0-11.47,0-17.13,0-1.16,0-1.32-.74-1.62-1.48-1.36-3.32-2.78-6.61-4-10a2.17,2.17,0,0,0-2.45-1.63q-12.69.09-25.37,0a2,2,0,0,0-2.29,1.54c-1.29,3.42-2.71,6.79-4.05,10.19-.29.73-.49,1.35-1.49,1.34-5.66,0-11.31,0-17,0C8.93,163.47,17.71,143,26.41,122.56c.68-1.6,1.42-2.26,3.25-2.21,5.68.15,11.37.07,17.06,0,1.06,0,1.75.15,2.24,1.29Q62,152.39,75.21,183.07A8.11,8.11,0,0,1,75.47,184.11Z"/><path class="cls-3" d="M353.57,169.72c-2.17,4.7-4.26,9.14-6.28,13.61-.43.94-1.17.76-1.88.78-16.05.29-27.92-10.47-29.12-26.49-.42-5.67-.4-11.34,1.27-16.89,3.39-11.27,12.3-18.76,24-19.95,7.38-.75,14.8-.23,22.2-.39,1.07,0,1.43.36,1.42,1.43-.05,4-.08,7.93,0,11.89,0,1.47-.72,1.5-1.8,1.5-4.79,0-9.58,0-14.37,0-11.88-.16-17.14,7.38-16.8,18.21a24.62,24.62,0,0,0,.81,5.53c1.69,6.51,6.92,10.5,14,10.78C349.11,169.79,351.19,169.72,353.57,169.72Z"/><path class="cls-3" d="M292.1,152.43c0-10,0-19.9,0-29.84,0-1.79.49-2.28,2.25-2.23,4,.13,8.07.08,12.11,0,1.27,0,1.86.18,1.86,1.68q-.07,30.28,0,60.58c0,1.2-.38,1.51-1.54,1.49-4.26-.06-8.52-.09-12.78,0-1.49,0-1.89-.41-1.88-1.87C292.13,172.32,292.1,162.37,292.1,152.43Z"/><path class="cls-4" d="M0,468.86a5.42,5.42,0,0,0,2.65.27q266.94,0,533.9.06c2.24,0,2.83-.51,2.82-2.8q-.11-82.09-.08-164.19c0-.86.61-2-.59-2.6.32-.33.71-.44.81.09a13.9,13.9,0,0,1,.09,2.24v164.4c0,3.09,0,3.1-3.18,3.1H447.24c-1,0-1.94.05-2.92.08s-2.09-.08-3.14-.08q-219.14,0-438.28,0C1.93,469.4.79,469.91,0,468.86Z"/><path class="cls-3" d="M345.88,272l20.53,23.1c-6.72,0-13,0-19.22,0-1,0-1.41-.73-1.92-1.34q-8.41-9.93-16.82-19.88c-.83-1-5.89-1.89-6.88-1.19-.67.47-.34,1.25-.34,1.88,0,6.22-.05,12.43,0,18.65,0,1.38-.24,1.95-1.8,1.91-4.19-.12-8.39-.09-12.58,0-1.38,0-1.92-.25-1.92-1.81q.09-30,0-60c0-1.08,0-1.81,1.48-1.8,12,.06,24-.19,35.94.11,10.8.26,18.68,7.31,19.75,16.95C363.46,260.51,357.91,268.66,345.88,272Z"/><path class="cls-3" d="M368.84,263.36c0-9.88.05-19.77,0-29.65,0-1.84.58-2.18,2.26-2.18q23.7.09,47.4,0c1.73,0,2.35.4,2.27,2.22-.15,3.36-.12,6.74,0,10.1.06,1.59-.43,2-2,2-10.48-.06-21,0-31.45-.06-1.67,0-2.45.27-2.28,2.16a36.07,36.07,0,0,1,0,6.06c-.13,1.68.38,2.13,2.08,2.12,10.11-.09,20.22,0,30.33-.1,2.07,0,2.52.62,2.43,2.53-.15,3.06-.14,6.14,0,9.21.07,1.73-.4,2.27-2.2,2.25-10.11-.09-20.22,0-30.33-.09-1.89,0-2.46.5-2.31,2.35a45.63,45.63,0,0,1,0,6.51c-.11,1.63.47,2,2,1.95,10.48-.07,21,0,31.45-.09,1.95,0,2.36.57,2.29,2.38-.14,3.44-.11,6.89,0,10.33,0,1.4-.4,1.75-1.77,1.75q-24.15-.08-48.3,0c-1.51,0-1.84-.45-1.83-1.88C368.87,283.28,368.84,273.32,368.84,263.36Z"/><path class="cls-3" d="M115.82,263.19c0-9.88,0-19.76,0-29.64,0-1.54.37-2,2-2q23.92.09,47.83,0c1.48,0,2.13.25,2.07,1.92-.13,3.52-.12,7,0,10.55.05,1.53-.49,1.86-1.91,1.85-10.18-.05-20.36,0-30.54,0-3.14,0-3.14,0-3.14,3.25,0,1.64.12,3.3,0,4.93s.35,2.14,2.07,2.13c10.1-.09,20.21,0,30.31-.09,1.87,0,2.44.47,2.35,2.34-.15,3.21-.13,6.44,0,9.66.06,1.59-.43,2-2,2-10.17-.07-20.36,0-30.53-.08-1.8,0-2.32.48-2.2,2.24a54,54,0,0,1,0,6.73c-.09,1.51.45,1.84,1.88,1.83,10.48-.06,20.95,0,31.43-.08,1.88,0,2.41.46,2.32,2.33-.16,3.44-.09,6.89,0,10.33,0,1.3-.22,1.81-1.69,1.8q-24.24-.08-48.5,0c-1.52,0-1.65-.61-1.64-1.85Q115.85,278.24,115.82,263.19Z"/><path class="cls-3" d="M462.05,231.57c5.84,0,11.68,0,17.52,0,1.44,0,1.93.22,1.21,1.74-1.69,3.58-3.33,7.19-4.83,10.86a2.41,2.41,0,0,1-2.67,1.71q-12.69-.09-25.38,0c-4.1,0-6.62,3-5.68,6.47.64,2.37,2.57,3.73,5.45,3.78,5.69.11,11.38-.18,17.06.19,10.83.7,17.44,6.66,17.83,16.12.52,12.23-5.67,20.51-16.53,22.26a60.46,60.46,0,0,1-9.41.43c-8.91,0-17.82,0-26.73,0-1.66,0-2.21-.36-2.14-2.09.15-3.36.18-6.74,0-10.1-.11-2,.64-2.28,2.41-2.27,10.18.08,20.37.05,30.55,0,3.6,0,5.78-2,5.72-5.16s-2.13-5-5.63-5.11c-5.09-.1-10.18-.08-15.27,0a24.19,24.19,0,0,1-6-.66c-10.73-2.58-14.75-11.49-13.41-21.22,1.44-10.47,9.38-16.8,20.67-16.93C451.87,231.52,457,231.57,462.05,231.57Z"/><path class="cls-3" d="M504.78,246.07c-3.13.69-5.09,2.69-4.67,5.17.54,3.13,2.17,4.85,5.59,4.85,5.39,0,10.77,0,16.16,0,1.07.43,2.24,0,3.32.31,2.05.63,4.14,1,6.15,1.85,7.85,3.28,10.15,11.66,9.43,18.48-.58,5.62-2.63,10.63-7.4,14.15a22.28,22.28,0,0,1-13.24,4.23c-10.77.1-21.55,0-32.32.06-1.34,0-1.83-.28-1.78-1.72.1-3.59.12-7.18,0-10.77-.06-1.62.46-2,2-2,10.4.07,20.81,0,31.21,0a5.09,5.09,0,0,0,4.84-2.66,4.84,4.84,0,0,0-.28-5.31,5.71,5.71,0,0,0-5.07-2.35c-5.24,0-10.47,0-15.71,0a21.58,21.58,0,0,1-8.72-1.79,15.41,15.41,0,0,1-9.09-9.93c-3.56-11.84,1.47-24.11,15.36-26.63.59-.1,1.17-.25,1.75-.38,5.16-.28,10.32-.08,15.48-.11q10-.06,20,0c.57,0,1.57-.67,1.76.62a138.62,138.62,0,0,0-5.81,13.28c-.53.83-1.36.41-2,.41-8.15,0-16.3,0-24.45,0A6.1,6.1,0,0,0,504.78,246.07Z"/><path class="cls-3" d="M240.28,263.41c0-10,0-19.91,0-29.87,0-1.55.39-2,2-2,11.68.07,23.36,0,35,.06,12.25.09,20.29,7.87,20.83,20.82.48,11.7-6.92,20.09-18.16,21.62-6.92.94-13.91.33-20.86.32-2.25,0-2.67.64-2.61,2.73.16,5.38,0,10.78.08,16.17,0,1.44-.33,1.91-1.83,1.88-4.12-.11-8.24-.12-12.35,0-1.65.05-2.14-.34-2.13-2.07C240.32,283.18,240.28,273.3,240.28,263.41Z"/><path class="cls-3" d="M238.77,231.57l-13,16.15c-3.66,4.55-7.27,9.13-11,13.6-1,1.25-1.15,2-.07,3.34,7.43,9.19,14.77,18.46,22.13,27.7.64.8,1.25,1.62,2.1,2.73-6.77,0-13.17,0-19.58,0-.94,0-1.25-.68-1.69-1.26L204.85,277.1c-.36-.47-.74-.92-1.26-1.56-3.52,4.61-7.31,8.89-10.3,13.68s-6.49,6.72-12.06,6c-3.75-.5-7.62-.09-11.44-.1a2.75,2.75,0,0,1-.47-.06c-.25-.74.43-1,.76-1.45q11.32-14.22,22.73-28.37c1.08-1.32,1.24-2.1.09-3.51-7.63-9.42-15.16-18.91-22.71-28.39-.35-.45-.92-.78-.93-1.73,4.1,0,8.24.42,12.25-.1,5.73-.74,9.47,1.27,12.46,6.14,2.57,4.19,6,7.85,8.9,11.82.93,1.26,1.4,1.32,2.36,0,4.08-5.44,8.28-10.8,12.38-16.24a3.64,3.64,0,0,1,3.33-1.7C226.7,231.63,232.45,231.57,238.77,231.57Z"/><path class="cls-4" d="M213.77,221.38c.85-.72,1.86-.35,2.78-.35q159.81,0,319.63,0c3.12,0,3.12,0,3.12-3q0-142.52,0-285a6.79,6.79,0,0,0-.27-3.1c1,.73.54,1.8.54,2.7q0,47.73,0,95.45V218.2c0,3.59.32,3.2-3.3,3.2H216.46Z"/><path class="cls-4" d="M539.51,232.17c-.45-1.11-1.42-.57-2.12-.57-11.7,0-23.39,0-35.09,0,.49-.48,1.12-.35,1.7-.35,11.38,0,22.76,0,34.14,0C538.61,231.32,539.86,230.61,539.51,232.17Z"/><path class="cls-1" d="M504.78,246.07a9,9,0,0,1,3.53-.23c7.59,0,15.19,0,22.78,0a4.27,4.27,0,0,0,2.61-.37c-.33.85-1.08.66-1.71.66Z"/><path class="cls-1" d="M525.18,256.35a9.55,9.55,0,0,1-3.32-.31C523,256.12,524.13,255.66,525.18,256.35Z"/><path class="cls-1" d="M254.2,147.71c-2.69,0-5.39,0-8.07,0-1.18,0-1.76-.19-1.72-1.56.1-3.29.09-6.58,0-9.87,0-1.35.52-1.6,1.72-1.59,5.3.05,10.61,0,15.92,0s8.3,3.8,7.09,8.27c-.75,2.73-3,4.46-6.43,4.61-2.83.12-5.67,0-8.51,0Z"/><path class="cls-1" d="M399.87,157.06H382.54c2.86-7.07,5.64-14,8.64-21.42Z"/><path class="cls-1" d="M37.61,135.62,46.27,157H29C31.81,150,34.59,143.11,37.61,135.62Z"/><path class="cls-1" d="M331,258.69c-2.76,0-5.53-.05-8.29,0-1.16,0-1.56-.28-1.53-1.49.08-3.29.06-6.58,0-9.87,0-1.15.31-1.56,1.51-1.55,5.53.05,11.07-.08,16.6.06,4.16.1,6.84,2.83,6.78,6.53s-2.76,6.18-7,6.29H331Z"/><path class="cls-1" d="M266.64,260c-2.92,0-5.83,0-8.74,0-1.06,0-1.43-.28-1.41-1.37.06-3.81.07-7.62,0-11.43,0-1.28.53-1.45,1.6-1.45,5.53,0,11.06,0,16.58,0,4.5.07,7.19,3,7.1,7.44-.08,4.12-2.86,6.7-7.29,6.75C271.86,260.06,269.25,260,266.64,260Z"/><path class="cls-1" d="M444.08,558.78q-265.51,0-531,.05c-1.68,0-2.06-.38-2.06-2.06q.06-356.94,0-713.87c0-1.68.38-2.06,2.06-2.06q332.37.07,664.73,0c.21,1.39-1,1.93-1.72,2.67q-16.05,16.13-32.16,32.2-25,25.05-50.09,50.1c-1.25,1.25-2.78,2.31-3,4.29,0,.35-.54.46-.91.57a26.48,26.48,0,0,1-4.71.16H6.21C.5-69.12,1-69.55,1-63.89Q1,43.68,1,151.25c0,1.19,0,2.38-.06,3.36C7,140.55,13.11,126.29,19.21,112a3.84,3.84,0,0,1,3.93-2.65c10,0,19.89,0,29.84,0,1.67,0,3.16.35,3.91,2,3.18,7.15,6.24,14.34,9.15,21.41,0-6.27,0-12.76,0-19.26,0-3.77.39-4.17,4.06-4.18q18.62,0,37.24,0c3.41,0,3.84.29,5,3.64q2.3,6.67,4.71,13.32c0,.06.1.09.42.35,1-2.62,1.83-5.18,2.77-7.71.85-2.32,1.54-4.69,2.43-7a3.62,3.62,0,0,1,3.75-2.6c.82,0,1.64,0,2.47,0h185.3c5.43,0,5.41,0,5.46,5.5,0,.91-.52,2.2.45,2.65.79.37,1.51-.74,2.24-1.23a40.23,40.23,0,0,1,22.44-6.85c20.19-.21,40.38,0,60.57-.1,2.67,0,4.26.88,5.3,3.43,2.53,6.24,5.26,12.39,7.91,18.58a5.4,5.4,0,0,1,.66,2c-.09-6.87-.08-13.74,0-20.61,0-2.74.57-3.3,3.33-3.31,10.54-.06,21.09,0,31.63,0a5,5,0,0,1,4.5,2.4c2.3,3.48,4.41,7.09,7.16,10.91,0-3.46,0-6.47,0-9.47,0-3.33.48-3.82,3.73-3.83q15.36,0,30.73,0c3.26,0,3.72.49,3.72,3.84q0,39,0,78.07c0,3.35-.46,3.82-3.72,3.83-10.24,0-20.49,0-30.73,0a5.42,5.42,0,0,1-5.17-2.83c-2-3.32-4.05-6.58-6.53-10.23-.11,3.52,0,6.49-.07,9.45s-.51,3.56-3.53,3.57c-15.93,0-31.85,0-47.78,0a4.28,4.28,0,0,1-4.59-3.09c-.94-2.61-2.12-5.12-3.13-7.69a3.06,3.06,0,0,0-3.19-2.25c-3,.05-6,0-9,0a3.15,3.15,0,0,0-3.23,2.23c-1.08,2.71-2.21,5.4-3.25,8.12a3.76,3.76,0,0,1-3.94,2.66c-11.59,0-23.19.24-34.77-.1a37.43,37.43,0,0,1-19.58-6.47,6,6,0,0,0-2.06-1.19,23.11,23.11,0,0,0-.17,4.39c-.12,2.75-.6,3.3-3.32,3.35-3.51.07-7,0-10.54,0-12.79,0-25.58,0-38.36,0a6.76,6.76,0,0,1-5.94-2.81c-2.3-3-4.71-5.91-7.32-9.07-.07,3.17,0,6-.05,8.81-.09,2.38-.6,2.87-2.94,3-.9.05-1.8,0-2.7,0H55.5c-5.48,0-5.48,0-7.51-5-.75-1.88-1.54-3.73-2.24-5.63a3.16,3.16,0,0,0-3.36-2.34c-2.92.05-5.84,0-8.75,0a3.25,3.25,0,0,0-3.42,2.3c-1,2.51-2.09,5-3,7.51a4.32,4.32,0,0,1-4.7,3.23c-5.76-.08-11.52,0-17.28,0-4.22,0-4.22,0-4.22,4.36V422.06q0,21.21,0,42.4c0,1.11-.2,2.27.44,3.29a2.51,2.51,0,0,0,2.07.66c.9,0,1.79,0,2.69,0q216.65,0,433.29,0c1.54,0,3.15-.37,4.61.48a4.79,4.79,0,0,1,.66,3.22q0,41.73,0,83.45C444.81,556.7,444.91,557.85,444.08,558.78Z"/><path class="cls-1" d="M444.08,558.78V469.13c1-1.1,2.38-.7,3.6-.7q39.69,0,79.37,0c3,0,6,0,9,0,1.78,0,2.69-.66,2.56-2.5,0-.45,0-.9,0-1.35q0-80.37,0-160.74c0-1,.47-2.12-.55-2.91-2.68,1-5.06,2.58-7.8,3.4A35.8,35.8,0,0,1,519.84,306q-87.6,0-175.19,0a7.94,7.94,0,0,1-7.2-3.49c-2.05-2.82-4.35-5.47-6.88-8.53a62,62,0,0,0-.2,7.69c-.06,3.9-.37,4.26-4.21,4.27q-14.36,0-28.71,0c-3.47,0-3.9-.44-3.92-3.85,0-5.31,0-10.62,0-15.93,0-1.32-.21-2.28-1.91-1.66-5.65,2.06-11.53,2.35-17.47,2.16-.9,0-1.8,0-2.69,0-3.89,0-3.89,0-3.9,3.79,0,4,0,7.93,0,11.89,0,3.07-.5,3.59-3.49,3.6q-24,0-48,0a5.49,5.49,0,0,1-4.63-2.23c-2.09-2.64-4-5.4-6.14-8-1.36-1.68-1.75-1.69-3,0-2,2.6-4,5.19-6,7.84a5.47,5.47,0,0,1-4.75,2.41q-41.71,0-83.44,0c-2.85,0-3.39-.55-3.39-3.47q-.06-39.36,0-78.73c0-3,.52-3.51,3.57-3.51l83.45,0a5.47,5.47,0,0,1,4.79,2.32c1.87,2.53,3.8,5,5.74,7.48s2,2.44,3.85.1,3.55-4.62,5.32-6.94a5.39,5.39,0,0,1,2.66-2.3,26.26,26.26,0,0,1,4.25-.13H534.06c4.51,0,4.51,0,4.51-4.6q0-140.61,0-281.24c0-1.23.43-2.58-.68-3.61a6.61,6.61,0,0,0-3.29-.38q-20.12,0-40.22,0c-1.23,0-2.56.26-3.61-.73a1.59,1.59,0,0,1,.33-2.36c.46-.38.85-.83,1.28-1.26L576-157.12c.63-.63,1.19-1.33,1.78-2,16.37,0,32.75,0,49.12,0,1.65,0,2.08.34,2.08,2q-.07,154.43,0,308.85,0,202.42.06,404.85c0,2-.56,2.24-2.35,2.24Q535.38,558.75,444.08,558.78Z"/><path class="cls-2" d="M490.75-69.84c7.9,0,15.81.1,23.72.1s16.12,0,24.17-.07c.62.64.32,1.43.32,2.14q0,143.2,0,286.4c0,2.41,0,2.41-2.65,2.41H216.72a6.63,6.63,0,0,0-2.87.2l-9.74,12.29c-2.82-3.66-5.64-7.2-8.32-10.86a4,4,0,0,0-3.7-1.84q-42.18.09-84.35,0c-1.95,0-2.47.41-2.47,2.42q.12,39.82,0,79.65c0,2,.55,2.41,2.47,2.41q42.06-.1,84.13,0a3.83,3.83,0,0,0,3.51-1.77c2.67-3.68,5.48-7.27,8.35-11.05,3,3.88,5.86,7.56,8.64,11.33a3.26,3.26,0,0,0,3,1.48q24.79-.06,49.58,0c1.75,0,2.09-.55,2.06-2.16-.09-5.16,0-10.32-.06-15.48,0-1.44.37-1.88,1.87-1.9,6-.07,12.11.54,18.11-.74a49.93,49.93,0,0,0,7.49-2.37v9.17c0,3.89.05,7.78,0,11.67,0,1.34.36,1.8,1.76,1.79q15.92-.07,31.85,0c1.55,0,1.85-.54,1.82-1.93-.08-3.59,0-7.18,0-10.91,1,.16,1.31,1,1.78,1.56,2.71,3.29,5.41,6.59,8,9.93a3.2,3.2,0,0,0,2.83,1.34q88.74,0,177.46-.06a30.17,30.17,0,0,0,18.44-5.88c.35,0,.6.09.63.44a19.41,19.41,0,0,1,0,2v164.2c0,2.69,0,2.7-2.59,2.7q-266.82,0-533.65,0c-.79,0-1.66.33-2.38-.31,0-1,.07-1.94.07-2.91q0-134,0-268.07c0-3.4-.42-2.95,3-3,6.65,0,13.31-.06,20,0a2.57,2.57,0,0,0,2.9-2c1.1-3.09,2.49-6.08,3.6-9.16a2.4,2.4,0,0,1,2.73-1.93c3.58.13,7.18.11,10.76,0A2.32,2.32,0,0,1,46,183.23c1.16,3.15,2.56,6.21,3.71,9.36a2.61,2.61,0,0,0,2.92,2c12.26-.08,24.53,0,36.79,0q80.54,0,161.06.06c2.36,0,2.9-.66,2.77-2.86-.19-3.27-.05-6.57-.05-10.2a32.37,32.37,0,0,1,4.38,5q2.91,3.42,5.66,7a2.51,2.51,0,0,0,2.26,1.07q25.69,0,51.37,0c1.53,0,1.93-.49,1.87-1.92-.1-2.23,0-4.47,0-6.6a.59.59,0,0,1,.89,0c7.37,5.91,15.91,8.37,25.21,8.43,10.62.07,21.24,0,31.86.05a2.33,2.33,0,0,0,2.59-1.78c1.18-3.22,2.55-6.37,3.75-9.58a2.18,2.18,0,0,1,2.41-1.72c3.74.1,7.48.11,11.22,0a2.17,2.17,0,0,1,2.42,1.72c1.26,3.27,2.66,6.49,3.92,9.76a2.07,2.07,0,0,0,2.26,1.6q24.9-.08,49.8,0c1.47,0,1.93-.4,1.9-1.88a94.35,94.35,0,0,1,.45-12.62c2.19,3.41,4.67,6.67,6.49,10.26s4.16,4.42,8,4.31c9.71-.3,19.44-.14,29.16-.07,1.61,0,2.18-.31,2.17-2.07q-.07-40.26,0-80.53c0-1.39-.27-1.93-1.83-1.92q-16.48.1-33,0c-1.42,0-1.92.3-1.88,1.82a107.68,107.68,0,0,1-.36,12.78c-2.73-4.24-5.53-8.43-8.17-12.72a3.44,3.44,0,0,0-3.37-1.9q-16.15.14-32.3,0c-1.9,0-2.33.54-2.31,2.37.11,7.62,0,15.24,0,23-.89-.33-.93-1-1.16-1.59-3.15-7.34-6.31-14.67-9.4-22a2.42,2.42,0,0,0-2.63-1.75c-20.34,0-40.68,0-61,.07a40.4,40.4,0,0,0-25.8,8.75,8.87,8.87,0,0,1-.74.51s-.14,0-.54,0c0-2.53-.06-5.1,0-7.66,0-1.3-.41-1.78-1.67-1.61a8.34,8.34,0,0,1-1.12,0q-94.67,0-189.32,0c-2,0-2.86.43-3.47,2.37-1.59,5-3.46,10-5.21,15a2.3,2.3,0,0,1-.83,1.44c-2-5.71-4-11.35-6-17.05a2.21,2.21,0,0,0-2.54-1.76q-19.86.09-39.71,0c-1.76,0-2.08.55-2.06,2.15.08,7.7,0,15.39,0,23.18-.92-.32-.91-1.07-1.15-1.64-3.13-7.26-6.28-14.52-9.33-21.81a2.52,2.52,0,0,0-2.77-1.88q-15.36.14-30.73,0A2.65,2.65,0,0,0,20,112q-9,21.33-18.24,42.59a5.68,5.68,0,0,1-1.33,2.06v-2.11q0-110.71,0-221.41c0-3.26-.38-2.85,2.87-2.85H487.62C488.66-69.74,489.7-69.8,490.75-69.84Z"/><path class="cls-3" d="M93.37,138.22c0,14.83,0,29.34,0,43.85,0,1.68-.41,2.16-2.1,2.1-4-.13-8.07-.07-12.11,0-1.13,0-1.73-.08-1.73-1.51q.07-30.28,0-60.57c0-1.64.82-1.57,1.94-1.57,7.25,0,14.51.07,21.76,0,1.6,0,2.18.57,2.66,2q6.32,18.19,12.74,36.33c.18.53.4,1.05.79,2.05,1.75-5,3.37-9.53,5-14.08,2.84-8.1,5.69-16.19,8.46-24.31.47-1.39,1-2,2.63-2,7.18.1,14.36.09,21.54,0,1.55,0,2,.37,2,2q-.09,29.94,0,59.89c0,1.53-.48,1.85-1.89,1.82-4-.09-7.93-.13-11.89,0-1.83.07-2.37-.41-2.36-2.31.09-13.53.05-27.07.05-40.6V138.6c-.81.42-.82,1.1-1,1.64-4.93,13.85-9.9,27.68-14.74,41.55-.65,1.89-1.51,2.51-3.48,2.39-3.2-.19-6.43-.13-9.64,0a2.2,2.2,0,0,1-2.55-1.77q-7.23-20.6-14.59-41.13A6.71,6.71,0,0,0,93.37,138.22Z"/><path class="cls-3" d="M476.33,159c0-12,.05-24.07-.06-36.1,0-2,.57-2.5,2.5-2.42,3.89.15,7.78.09,11.67,0,1.29,0,1.85.26,1.85,1.71q-.07,30.18,0,60.35c0,1.31-.44,1.62-1.66,1.6-5.46-.05-10.92-.09-16.38,0-1.45,0-1.93-.78-2.54-1.73q-11.59-18.13-23.19-36.24c-.44-.69-.9-1.36-1.41-2.13-.56.63-.31,1.31-.31,1.91,0,12-.06,24.08,0,36.12,0,1.73-.48,2.11-2.12,2.06-4.11-.12-8.22-.08-12.33,0-1.24,0-1.85-.12-1.85-1.64q.09-30.18,0-60.35c0-1.24.33-1.69,1.63-1.67,5.83.06,11.66.08,17.49,0,1.48,0,1.9.93,2.49,1.84l22.2,34.48c.51.8,1,1.58,1.57,2.37Z"/><path class="cls-3" d="M269.17,161l20.54,23.11h-7.42c-3.59,0-7.18,0-10.76,0a3.42,3.42,0,0,1-3-1.4c-5.4-6.49-10.88-12.92-16.34-19.37-1.28-1.51-5.31-2.48-7.09-1.74-1,.42-.57,1.29-.57,1.94,0,6.21-.08,12.42,0,18.62,0,1.61-.46,2-2,2-4.11-.11-8.22-.08-12.33,0-1.26,0-1.86-.15-1.85-1.66q.07-30.18,0-60.35c0-1,.12-1.67,1.42-1.65,12.26.17,24.54-.48,36.77.31,11,.72,17.94,7.6,19,18.17,1.08,10.2-4.74,18.53-15.14,21.69Z"/><path class="cls-3" d="M167.52,152.17c0-9.79,0-19.58,0-29.37,0-1.88.55-2.34,2.38-2.33q23.65.11,47.31,0c1.59,0,2.25.27,2.17,2-.16,3.43-.17,6.88,0,10.31.08,1.78-.57,2-2.15,2-10.39-.07-20.78,0-31.17-.08-1.9,0-2.48.53-2.3,2.37.25,2.57-1.05,6,.51,7.53s4.82.38,7.35.39c8.29,0,16.59.06,24.88,0,1.58,0,2,.39,2,2-.12,3.36-.12,6.73,0,10.09.06,1.56-.38,2-2,2-10.16-.07-20.33,0-30.49-.07-1.7,0-2.4.34-2.26,2.19a52,52,0,0,1,0,6.72c-.08,1.47.38,1.87,1.85,1.87,10.39-.07,20.78,0,31.17-.1,2.26,0,2.71.64,2.6,2.72-.18,3.35-.1,6.73,0,10.09,0,1.25-.31,1.64-1.61,1.64q-24.21-.06-48.43,0c-1.6,0-1.78-.62-1.78-1.95C167.54,172.2,167.52,162.19,167.52,152.17Z"/><path class="cls-3" d="M428.78,184.13c-5.74,0-11.27,0-16.8,0-1.16,0-1.53-.57-1.88-1.46-1.36-3.39-2.81-6.75-4.1-10.16a1.9,1.9,0,0,0-2.11-1.45c-8.52,0-17,.07-25.56,0a2.19,2.19,0,0,0-2.4,1.72c-1.26,3.35-2.66,6.65-3.95,10-.33.84-.64,1.37-1.71,1.36-5.45-.05-10.9,0-16.65,0,1.4-3.34,2.7-6.48,4-9.6q11.14-26,22.26-52c.61-1.43,1.27-2,2.92-2,5.75.12,11.51.06,17.27,0,1.05,0,1.76.13,2.24,1.27q13.11,30.77,26.3,61.5A4.23,4.23,0,0,1,428.78,184.13Z"/><path class="cls-3" d="M75.74,184.13c-5.8,0-11.46,0-17.11,0-1.16,0-1.31-.75-1.62-1.49-1.35-3.31-2.76-6.6-4-9.95a2.16,2.16,0,0,0-2.45-1.63q-12.66.09-25.33,0a2,2,0,0,0-2.28,1.54c-1.29,3.41-2.71,6.78-4.05,10.18-.29.72-.49,1.34-1.49,1.33-5.65,0-11.3,0-16.94,0,8.83-20.61,17.6-41,26.29-61.47.68-1.59,1.42-2.25,3.24-2.2,5.68.15,11.36.07,17,0,1.06,0,1.75.14,2.24,1.28q13.06,30.67,26.21,61.31A8.11,8.11,0,0,1,75.74,184.13Z"/><path class="cls-3" d="M353.46,169.76c-2.18,4.69-4.26,9.13-6.28,13.59-.43.94-1.16.76-1.88.78-16,.29-27.88-10.45-29.07-26.45-.43-5.67-.4-11.32,1.26-16.87,3.39-11.25,12.29-18.73,24-19.92,7.37-.75,14.78-.23,22.16-.39,1.08,0,1.44.36,1.42,1.42,0,4-.07,7.93,0,11.88,0,1.47-.72,1.5-1.8,1.5-4.79,0-9.57,0-14.35,0-11.86-.16-17.11,7.37-16.78,18.19a25.29,25.29,0,0,0,.81,5.52c1.69,6.5,6.91,10.48,14,10.77C349,169.83,351.08,169.76,353.46,169.76Z"/><path class="cls-3" d="M292.07,152.49c0-9.93.05-19.86,0-29.8,0-1.78.48-2.27,2.24-2.22,4,.13,8.07.08,12.1,0,1.27,0,1.86.18,1.85,1.68q-.08,30.24,0,60.49c0,1.2-.37,1.51-1.53,1.49-4.25-.06-8.51-.08-12.77,0-1.48,0-1.88-.42-1.87-1.88C292.1,172.36,292.07,162.43,292.07,152.49Z"/><path class="cls-4" d="M.35,468.49a5.44,5.44,0,0,0,2.65.27q266.58,0,533.16.06c2.24,0,2.82-.52,2.82-2.8q-.11-82-.09-164c0-.86.61-2-.58-2.6.31-.33.71-.44.8.09a12.77,12.77,0,0,1,.1,2.23V466c0,3.09,0,3.09-3.18,3.09H447c-1,0-1.94.05-2.91.08s-2.09-.08-3.13-.08q-218.85,0-437.68,0C2.3,469,1.16,469.53.35,468.49Z"/><path class="cls-3" d="M345.77,271.89,366.27,295c-6.7,0-12.94,0-19.19,0-1,0-1.4-.73-1.91-1.34q-8.42-9.92-16.8-19.85c-.83-1-5.89-1.89-6.87-1.19-.67.47-.34,1.25-.34,1.88,0,6.21-.06,12.41,0,18.62,0,1.38-.24,2-1.8,1.91-4.18-.12-8.37-.09-12.56,0-1.38,0-1.92-.24-1.92-1.8q.09-29.94,0-59.88c0-1.08,0-1.81,1.48-1.8,12,.05,23.93-.19,35.89.1,10.79.27,18.66,7.31,19.72,16.93C363.33,260.43,357.79,268.56,345.77,271.89Z"/><path class="cls-3" d="M368.7,263.27c0-9.87.05-19.74,0-29.61,0-1.83.57-2.18,2.25-2.17q23.67.09,47.34,0c1.73,0,2.34.4,2.26,2.21-.15,3.36-.12,6.73,0,10.09.06,1.58-.43,2-2,2-10.46-.07-20.93,0-31.4-.07-1.67,0-2.45.28-2.28,2.17a36,36,0,0,1,0,6c-.13,1.67.38,2.12,2.08,2.11,10.09-.09,20.19,0,30.28-.1,2.08,0,2.53.62,2.43,2.53-.15,3.06-.14,6.13,0,9.19.07,1.73-.39,2.27-2.2,2.25-10.09-.09-20.19,0-30.28-.09-1.89,0-2.46.5-2.31,2.35a45.49,45.49,0,0,1,0,6.5c-.11,1.63.47,1.95,2,1.94,10.47-.06,20.94,0,31.4-.08,1.95,0,2.36.57,2.29,2.38-.14,3.43-.11,6.88,0,10.31,0,1.4-.4,1.75-1.77,1.75q-24.12-.08-48.23,0c-1.51,0-1.84-.46-1.83-1.88C368.73,283.17,368.7,273.22,368.7,263.27Z"/><path class="cls-3" d="M116,263.1c0-9.86,0-19.73,0-29.59,0-1.54.36-2,2-2q23.88.09,47.76,0c1.47,0,2.12.25,2.06,1.92-.13,3.51-.11,7,0,10.53,0,1.53-.5,1.85-1.92,1.85-10.16-.06-20.33,0-30.49,0-3.14,0-3.14,0-3.14,3.24,0,1.64.12,3.3,0,4.93s.35,2.14,2.07,2.12c10.09-.09,20.18,0,30.27-.09,1.86,0,2.43.47,2.35,2.34-.16,3.21-.14,6.43,0,9.64.06,1.59-.43,2-2,2-10.16-.07-20.33,0-30.49-.08-1.79,0-2.32.47-2.2,2.23a53.81,53.81,0,0,1,0,6.72c-.09,1.51.45,1.84,1.88,1.83,10.46-.06,20.92,0,31.39-.08,1.87,0,2.41.45,2.32,2.33-.17,3.43-.1,6.87,0,10.31,0,1.29-.22,1.81-1.69,1.8q-24.22-.08-48.43,0c-1.53,0-1.65-.6-1.65-1.84C116.05,283.14,116,273.12,116,263.1Z"/><path class="cls-3" d="M461.78,231.53c5.84,0,11.67,0,17.5,0,1.44,0,1.92.23,1.21,1.74-1.69,3.58-3.32,7.19-4.83,10.84A2.4,2.4,0,0,1,473,245.8c-8.45-.07-16.9-.06-25.35,0-4.09,0-6.61,2.95-5.67,6.46.64,2.37,2.57,3.72,5.44,3.77,5.68.11,11.36-.18,17,.19,10.81.7,17.41,6.66,17.81,16.1.51,12.21-5.66,20.49-16.52,22.23a59,59,0,0,1-9.39.42c-8.9,0-17.8,0-26.69.05-1.66,0-2.21-.36-2.14-2.09.15-3.36.18-6.73,0-10.09-.11-2,.64-2.28,2.41-2.26,10.16.08,20.33.05,30.5,0,3.6,0,5.77-2,5.72-5.16s-2.13-5-5.62-5.1c-5.09-.1-10.17-.08-15.26,0a25.14,25.14,0,0,1-6-.66c-10.71-2.59-14.72-11.48-13.39-21.19,1.44-10.46,9.37-16.78,20.64-16.91C451.61,231.48,456.7,231.53,461.78,231.53Z"/><path class="cls-3" d="M504.45,246c-3.12.69-5.08,2.69-4.66,5.17.54,3.13,2.16,4.84,5.59,4.84,5.37,0,10.75,0,16.13,0,1.07.42,2.23,0,3.32.31,2,.62,4.13,1,6.13,1.83,7.84,3.28,10.14,11.65,9.43,18.46-.59,5.61-2.63,10.62-7.4,14.13a22.15,22.15,0,0,1-13.22,4.22c-10.76.11-21.52,0-32.28.07-1.33,0-1.82-.28-1.78-1.72.11-3.58.13-7.17,0-10.76-.06-1.61.46-2,2-1.95,10.39.07,20.77,0,31.16,0a5.06,5.06,0,0,0,4.83-2.66,4.82,4.82,0,0,0-.27-5.3,5.71,5.71,0,0,0-5.07-2.35H502.67a21.73,21.73,0,0,1-8.71-1.79,15.43,15.43,0,0,1-9.07-9.92c-3.55-11.82,1.47-24.08,15.34-26.59.59-.11,1.17-.25,1.75-.38,5.15-.29,10.3-.09,15.45-.12q10-.06,20,0c.57,0,1.56-.67,1.75.61a142.06,142.06,0,0,0-5.8,13.27c-.53.82-1.35.4-2,.41-8.13,0-16.27,0-24.41,0A6.11,6.11,0,0,0,504.45,246Z"/><path class="cls-3" d="M240.32,263.33c0-9.95,0-19.89,0-29.83,0-1.56.39-2,2-2,11.66.07,23.33,0,35,0,12.23.1,20.26,7.86,20.8,20.79.48,11.69-6.91,20.07-18.13,21.59-6.91.94-13.89.33-20.83.32-2.25,0-2.67.65-2.61,2.73.15,5.38,0,10.77.08,16.15,0,1.43-.33,1.91-1.83,1.87-4.11-.1-8.23-.11-12.34,0-1.64,0-2.13-.35-2.12-2.07C240.36,283.06,240.32,273.19,240.32,263.33Z"/><path class="cls-3" d="M238.82,231.53l-12.95,16.12c-3.65,4.54-7.26,9.12-11,13.59-1.05,1.25-1.15,2-.07,3.33,7.42,9.17,14.75,18.43,22.1,27.66.63.8,1.24,1.62,2.09,2.72-6.76,0-13.15,0-19.54,0-.95,0-1.26-.68-1.7-1.26L204.94,277c-.36-.47-.74-.91-1.26-1.55-3.51,4.6-7.3,8.88-10.28,13.66s-6.49,6.7-12.05,5.95c-3.74-.5-7.61-.1-11.42-.1a4.32,4.32,0,0,1-.47-.06c-.25-.74.43-1,.76-1.45q11.31-14.19,22.7-28.33c1.08-1.32,1.24-2.1.09-3.51-7.62-9.4-15.14-18.88-22.68-28.35-.36-.44-.92-.78-.93-1.72,4.1,0,8.22.41,12.23-.1,5.72-.74,9.46,1.27,12.44,6.13,2.57,4.18,6,7.84,8.89,11.81.93,1.25,1.41,1.31,2.36,0,4.08-5.44,8.27-10.79,12.36-16.22a3.65,3.65,0,0,1,3.33-1.69C226.76,231.59,232.51,231.53,238.82,231.53Z"/><path class="cls-4" d="M213.85,221.35c.84-.72,1.85-.35,2.77-.35q159.6,0,319.19,0c3.11,0,3.11,0,3.11-3q0-142.32,0-284.64a6.67,6.67,0,0,0-.27-3.1c1,.73.55,1.8.55,2.7q0,47.65,0,95.32v190c0,3.59.32,3.2-3.3,3.2H216.54Z"/><path class="cls-4" d="M539.13,232.12c-.45-1.11-1.41-.56-2.11-.56-11.68,0-23.36,0-35,0,.49-.48,1.11-.36,1.7-.36,11.36,0,22.72,0,34.09,0C538.23,231.28,539.49,230.57,539.13,232.12Z"/><path class="cls-1" d="M504.45,246a8.94,8.94,0,0,1,3.53-.22c7.58,0,15.17,0,22.75,0a4.31,4.31,0,0,0,2.6-.37c-.32.85-1.07.65-1.71.65Q518,246,504.45,246Z"/><path class="cls-1" d="M524.83,256.28a10,10,0,0,1-3.32-.31C522.62,256,523.78,255.58,524.83,256.28Z"/><path class="cls-1" d="M254.22,147.79c-2.69,0-5.38,0-8.06,0-1.18,0-1.75-.18-1.71-1.56.09-3.28.09-6.57,0-9.85,0-1.35.52-1.6,1.71-1.59,5.3.05,10.6,0,15.9,0s8.29,3.8,7.08,8.26c-.75,2.73-3,4.45-6.42,4.6-2.83.12-5.67,0-8.5,0Z"/><path class="cls-1" d="M399.69,157.12H382.38L391,135.73C394,143.07,396.79,150,399.69,157.12Z"/><path class="cls-1" d="M37.94,135.71c3,7.4,5.77,14.27,8.64,21.34H29.33Z"/><path class="cls-1" d="M330.93,258.61c-2.76,0-5.53-.05-8.29,0-1.15,0-1.55-.28-1.53-1.49.08-3.29.07-6.57,0-9.86,0-1.15.31-1.56,1.51-1.55,5.52.06,11.05-.07,16.57.06,4.15.1,6.83,2.83,6.77,6.53s-2.76,6.17-7,6.28h-8.06Z"/><path class="cls-1" d="M266.64,260c-2.91,0-5.82,0-8.73,0-1.05,0-1.42-.28-1.4-1.37.06-3.81.07-7.61,0-11.42,0-1.27.54-1.45,1.61-1.44,5.52,0,11-.05,16.56,0,4.49.07,7.17,3,7.08,7.43-.08,4.11-2.85,6.69-7.28,6.73C271.86,260,269.25,260,266.64,260Z"/><path class="cls-1" d="M443.84,558.28q-265.14,0-530.28.05c-1.68,0-2.06-.38-2.06-2.06q.06-356.43,0-712.87c0-1.68.38-2.06,2.06-2.06q331.91.07,663.8,0c.21,1.39-1,1.93-1.71,2.67q-16,16.09-32.12,32.15-25,25-50,50c-1.25,1.25-2.78,2.31-3,4.29-.05.35-.55.46-.92.56a26.37,26.37,0,0,1-4.7.17H6.58c-5.7,0-5.16-.43-5.16,5.22q0,107.42,0,214.84c0,1.18,0,2.37-.06,3.35,6-14,12.12-28.27,18.21-42.52a3.81,3.81,0,0,1,3.92-2.64c9.94,0,19.87,0,29.8,0,1.67,0,3.15.35,3.9,2,3.18,7.13,6.24,14.32,9.14,21.37,0-6.26,0-12.74,0-19.23,0-3.76.39-4.17,4.06-4.17q18.59,0,37.19,0c3.4,0,3.83.3,5,3.64q2.29,6.68,4.7,13.3c0,.06.11.09.42.35,1-2.61,1.83-5.17,2.77-7.7.85-2.31,1.54-4.68,2.43-7a3.61,3.61,0,0,1,3.74-2.6c.82,0,1.64,0,2.46,0H314.11c5.42,0,5.4,0,5.45,5.49,0,.91-.52,2.19.45,2.65.79.36,1.51-.75,2.23-1.23a40.18,40.18,0,0,1,22.42-6.84c20.16-.21,40.32,0,60.48-.11,2.67,0,4.26.88,5.29,3.43,2.53,6.23,5.26,12.37,7.9,18.55a5.53,5.53,0,0,1,.66,2c-.09-6.86-.07-13.72,0-20.58,0-2.74.58-3.29,3.33-3.31,10.53-.05,21.06,0,31.58,0a5,5,0,0,1,4.5,2.41c2.3,3.47,4.41,7.08,7.15,10.89,0-3.46,0-6.46,0-9.46,0-3.32.48-3.81,3.73-3.82q15.35,0,30.69,0c3.26,0,3.72.49,3.72,3.83q0,39,0,78c0,3.35-.46,3.82-3.71,3.83-10.23,0-20.46,0-30.69,0a5.42,5.42,0,0,1-5.16-2.83c-2-3.31-4.05-6.57-6.52-10.21-.11,3.51,0,6.47-.07,9.43s-.51,3.56-3.52,3.57c-15.91,0-31.82,0-47.72,0a4.28,4.28,0,0,1-4.59-3.09c-.93-2.6-2.11-5.11-3.12-7.68a3.06,3.06,0,0,0-3.18-2.25c-3,.05-6,0-9,0a3.13,3.13,0,0,0-3.23,2.22c-1.08,2.71-2.2,5.39-3.24,8.11a3.78,3.78,0,0,1-3.94,2.66c-11.57,0-23.15.24-34.72-.1a37.42,37.42,0,0,1-19.55-6.47,6.38,6.38,0,0,0-2.06-1.19,24,24,0,0,0-.17,4.39c-.12,2.75-.6,3.3-3.31,3.35-3.51.07-7,0-10.53,0-12.77,0-25.54,0-38.31,0a6.73,6.73,0,0,1-5.93-2.8c-2.29-3-4.7-5.9-7.31-9.06-.07,3.17.05,6,0,8.8-.09,2.38-.59,2.86-2.94,3-.89.05-1.79,0-2.69,0H55.8c-5.48,0-5.48,0-7.5-5-.75-1.87-1.54-3.73-2.24-5.62a3.16,3.16,0,0,0-3.36-2.34q-4.37.08-8.73,0a3.25,3.25,0,0,0-3.41,2.31c-1,2.5-2.1,4.95-3,7.49a4.32,4.32,0,0,1-4.7,3.23c-5.75-.09-11.5,0-17.25,0-4.22,0-4.22,0-4.22,4.36V421.75q0,21.18,0,42.35a5.79,5.79,0,0,0,.45,3.28,2.52,2.52,0,0,0,2.06.66c.9,0,1.79,0,2.69,0H439.3c1.54,0,3.15-.36,4.61.48a4.81,4.81,0,0,1,.65,3.22q0,41.67,0,83.34C444.56,556.2,444.66,557.35,443.84,558.28Z"/><path class="cls-1" d="M443.84,558.28V468.76c1-1.1,2.38-.7,3.6-.7q39.62,0,79.25,0c3,0,6,0,8.95,0,1.78,0,2.69-.66,2.56-2.51,0-.44,0-.89,0-1.34q0-80.25,0-160.52c0-1,.48-2.11-.55-2.9-2.67,1-5,2.57-7.79,3.4a35.89,35.89,0,0,1-10.34,1.66q-87.48,0-174.95,0a8,8,0,0,1-7.19-3.48c-2-2.82-4.34-5.47-6.87-8.53a61.89,61.89,0,0,0-.19,7.69c-.06,3.89-.38,4.25-4.21,4.26q-14.34,0-28.67,0c-3.46,0-3.89-.44-3.91-3.86,0-5.3,0-10.6,0-15.9,0-1.32-.21-2.28-1.91-1.66-5.65,2.06-11.52,2.35-17.45,2.16-.89,0-1.79,0-2.68,0-3.89,0-3.89,0-3.9,3.79,0,3.95,0,7.91,0,11.87,0,3.07-.51,3.58-3.49,3.59q-24,0-47.94,0a5.45,5.45,0,0,1-4.62-2.23c-2.09-2.63-4-5.38-6.13-8-1.36-1.69-1.74-1.69-3,0-2,2.61-4,5.19-6,7.83a5.49,5.49,0,0,1-4.75,2.42q-41.67,0-83.33,0c-2.84,0-3.38-.56-3.38-3.47q-.06-39.31,0-78.62c0-3,.52-3.51,3.57-3.51q41.66,0,83.32,0a5.5,5.5,0,0,1,4.8,2.32c1.86,2.52,3.79,5,5.72,7.47s2,2.43,3.84.1,3.56-4.61,5.32-6.93a5.39,5.39,0,0,1,2.66-2.3,27.41,27.41,0,0,1,4.25-.13H533.69c4.5,0,4.5,0,4.5-4.59q0-140.43,0-280.86c0-1.22.42-2.57-.68-3.6a6.61,6.61,0,0,0-3.29-.38q-20.09,0-40.16,0c-1.23,0-2.56.26-3.61-.72a1.58,1.58,0,0,1,.34-2.36c.45-.38.84-.83,1.27-1.26l83.54-83.54c.62-.63,1.18-1.33,1.77-2,16.35,0,32.7,0,49,0,1.65,0,2.08.34,2.08,2q-.07,154.2,0,308.42,0,202.14.06,404.28c0,2-.56,2.24-2.34,2.24Q535,558.25,443.84,558.28Z"/><path class="cls-2" d="M490.44-69.46c7.89,0,15.79.09,23.69.1s16.09,0,24.14-.07c.62.63.31,1.42.31,2.13q0,143,0,286c0,2.4,0,2.4-2.66,2.4H216.79a6.75,6.75,0,0,0-2.86.2l-9.73,12.27c-2.81-3.65-5.63-7.19-8.3-10.85a4.05,4.05,0,0,0-3.7-1.83q-42.12.09-84.24,0c-1.94,0-2.46.41-2.46,2.42q.12,39.77,0,79.53c0,2,.55,2.41,2.46,2.41q42-.09,84,0a3.82,3.82,0,0,0,3.51-1.76c2.67-3.68,5.47-7.26,8.34-11,3,3.87,5.85,7.55,8.63,11.31a3.26,3.26,0,0,0,3,1.48q24.75-.06,49.51,0c1.75,0,2.09-.54,2.06-2.15-.1-5.15,0-10.31-.07-15.46,0-1.45.37-1.88,1.87-1.9,6-.07,12.09.54,18.08-.74a49.38,49.38,0,0,0,7.48-2.36v9.15c0,3.88,0,7.77,0,11.65,0,1.35.35,1.8,1.75,1.79q15.9-.08,31.81,0c1.55,0,1.85-.54,1.82-1.93-.08-3.58,0-7.16,0-10.89,1,.16,1.31,1,1.78,1.55,2.7,3.29,5.39,6.59,8,9.93a3.23,3.23,0,0,0,2.83,1.33q88.6,0,177.21-.06a30.06,30.06,0,0,0,18.42-5.87c.35-.05.59.09.63.44.06.67,0,1.34,0,2v164c0,2.69,0,2.69-2.59,2.69q-266.46,0-532.91,0c-.79,0-1.66.34-2.37-.31,0-1,.07-1.93.07-2.9q0-133.84,0-267.7c0-3.39-.43-2.94,3-2.95,6.64,0,13.29-.07,19.93,0a2.58,2.58,0,0,0,2.9-2c1.1-3.08,2.48-6.07,3.59-9.15a2.39,2.39,0,0,1,2.73-1.92c3.58.13,7.17.11,10.75,0a2.3,2.3,0,0,1,2.64,1.72c1.16,3.15,2.56,6.21,3.71,9.35a2.61,2.61,0,0,0,2.92,2c12.24-.08,24.49,0,36.73,0q80.43,0,160.84.06c2.35,0,2.9-.65,2.77-2.85-.19-3.27-.05-6.56-.05-10.19a33.31,33.31,0,0,1,4.37,5c1.93,2.27,3.82,4.59,5.64,6.95a2.56,2.56,0,0,0,2.27,1.07q25.65,0,51.3,0c1.53,0,1.92-.49,1.86-1.92-.1-2.23,0-4.46,0-6.59a.6.6,0,0,1,.9,0c7.35,5.9,15.88,8.36,25.17,8.42,10.6.07,21.2,0,31.81.05a2.31,2.31,0,0,0,2.58-1.78c1.19-3.22,2.55-6.36,3.76-9.57a2.18,2.18,0,0,1,2.4-1.72c3.73.11,7.47.12,11.2,0a2.18,2.18,0,0,1,2.42,1.72c1.26,3.27,2.66,6.48,3.91,9.75a2.07,2.07,0,0,0,2.26,1.6q24.87-.08,49.73,0c1.47,0,1.93-.4,1.9-1.88a94,94,0,0,1,.45-12.6c2.19,3.4,4.66,6.66,6.48,10.25s4.15,4.41,7.94,4.29c9.7-.29,19.41-.13,29.12-.06,1.6,0,2.17-.32,2.17-2.07q-.09-40.22,0-80.42c0-1.39-.26-1.93-1.82-1.92q-16.47.12-32.93,0c-1.42,0-1.92.31-1.88,1.82a111.62,111.62,0,0,1-.36,12.76c-2.73-4.23-5.52-8.42-8.17-12.7a3.41,3.41,0,0,0-3.36-1.89q-16.12.12-32.25,0c-1.9,0-2.33.53-2.31,2.36.11,7.61.05,15.22.05,23-.89-.33-.92-1-1.16-1.59-3.14-7.33-6.3-14.65-9.38-22a2.41,2.41,0,0,0-2.63-1.74c-20.31,0-40.62,0-60.93.06-9.51,0-18.24,2.72-25.77,8.74a8.87,8.87,0,0,1-.74.51c-.05,0-.14,0-.54,0,0-2.53-.06-5.09,0-7.65,0-1.29-.41-1.78-1.66-1.61a8.37,8.37,0,0,1-1.12,0q-94.53,0-189.06,0c-1.94,0-2.85.43-3.46,2.37-1.59,5-3.46,10-5.21,15a2.3,2.3,0,0,1-.83,1.44c-2-5.7-4-11.34-5.95-17a2.19,2.19,0,0,0-2.54-1.75c-13.22,0-26.43.07-39.65,0-1.75,0-2.08.54-2.06,2.15.08,7.68,0,15.36,0,23.14-.91-.32-.9-1.07-1.15-1.64-3.12-7.25-6.27-14.49-9.31-21.78A2.51,2.51,0,0,0,54,110.18q-15.35.12-30.69,0a2.66,2.66,0,0,0-2.94,1.93c-6,14.2-12.12,28.36-18.21,42.54a5.61,5.61,0,0,1-1.32,2v-2.11Q.8,44,.81-66.51c0-3.26-.38-2.84,2.87-2.84H487.31C488.35-69.36,489.4-69.43,490.44-69.46Z"/><path class="cls-3" d="M93.62,138.3c0,14.82,0,29.31,0,43.79,0,1.68-.41,2.16-2.1,2.1-4-.13-8.06-.07-12.09,0-1.13,0-1.73-.08-1.73-1.51q.08-30.24,0-60.49c0-1.63.81-1.56,1.94-1.56,7.24,0,14.48.07,21.72,0,1.6,0,2.18.57,2.66,2,4.2,12.11,8.47,24.19,12.72,36.28.19.53.4,1.05.79,2.05,1.75-5,3.37-9.52,5-14.07,2.83-8.08,5.68-16.16,8.44-24.27.47-1.39,1-2,2.64-2,7.16.1,14.33.09,21.5,0,1.55,0,2,.37,2,2q-.09,29.9,0,59.81c0,1.52-.48,1.84-1.89,1.81-4-.09-7.92-.13-11.87,0-1.83.06-2.37-.41-2.36-2.31.09-13.52.05-27,.05-40.55v-2.65c-.81.41-.82,1.1-1,1.64-4.93,13.82-9.89,27.63-14.72,41.49-.66,1.88-1.51,2.5-3.48,2.38-3.2-.19-6.42-.13-9.63,0a2.2,2.2,0,0,1-2.55-1.77q-7.22-20.56-14.57-41.07A6.68,6.68,0,0,0,93.62,138.3Z"/><path class="cls-3" d="M476,159.05c0-12,0-24-.05-36.05,0-2,.57-2.5,2.49-2.42,3.88.15,7.77.09,11.65,0,1.29,0,1.85.26,1.85,1.71q-.08,30.13,0,60.26c0,1.31-.44,1.62-1.66,1.61-5.45-.06-10.91-.1-16.35,0-1.45,0-1.94-.78-2.54-1.73l-23.16-36.18c-.44-.69-.9-1.37-1.41-2.14-.56.63-.31,1.32-.31,1.92,0,12-.05,24,0,36.06,0,1.73-.47,2.11-2.11,2.06-4.1-.12-8.21-.07-12.32,0-1.23,0-1.84-.12-1.84-1.64q.09-30.14,0-60.26c0-1.24.32-1.69,1.62-1.67,5.83.06,11.65.08,17.47,0,1.48,0,1.9.92,2.49,1.84q11.09,17.22,22.16,34.43c.51.8,1.05,1.58,1.57,2.37Z"/><path class="cls-3" d="M269.17,161.07l20.52,23.08h-7.41c-3.59,0-7.17-.05-10.76,0a3.43,3.43,0,0,1-3-1.39c-5.4-6.49-10.86-12.91-16.31-19.35-1.28-1.51-5.31-2.48-7.09-1.73-1,.41-.56,1.28-.57,1.93,0,6.2-.08,12.4,0,18.6,0,1.61-.45,2-2,1.95-4.1-.11-8.21-.08-12.32,0-1.25,0-1.85-.16-1.85-1.67q.09-30.12,0-60.26c0-1,.13-1.66,1.43-1.65,12.24.17,24.5-.48,36.72.31,11,.72,17.91,7.58,19,18.14,1.07,10.19-4.73,18.51-15.12,21.66Z"/><path class="cls-3" d="M167.67,152.24c0-9.78.05-19.55,0-29.33,0-1.88.55-2.34,2.38-2.33q23.63.11,47.25,0c1.58,0,2.24.27,2.16,2-.16,3.43-.16,6.87,0,10.3.08,1.79-.57,2-2.15,2-10.37-.07-20.75,0-31.12-.08-1.9,0-2.48.53-2.3,2.37.25,2.57-1.05,5.95.51,7.52s4.81.37,7.34.39c8.28,0,16.56.05,24.85,0,1.57,0,2,.4,2,2q-.18,5,0,10.08c.06,1.56-.38,2-2,2-10.15-.08-20.3,0-30.45-.08-1.7,0-2.4.35-2.26,2.19a51.81,51.81,0,0,1,0,6.71c-.08,1.47.38,1.88,1.85,1.87,10.37-.06,20.75,0,31.12-.1,2.26,0,2.71.64,2.6,2.72-.18,3.35-.1,6.72,0,10.07,0,1.25-.31,1.64-1.61,1.64q-24.18-.06-48.36,0c-1.6,0-1.78-.62-1.78-1.95C167.69,172.24,167.67,162.24,167.67,152.24Z"/><path class="cls-3" d="M428.56,184.15c-5.73,0-11.26,0-16.78,0-1.16,0-1.52-.56-1.88-1.45-1.35-3.39-2.8-6.74-4.09-10.16a1.9,1.9,0,0,0-2.1-1.44c-8.51.05-17,.07-25.53,0a2.17,2.17,0,0,0-2.39,1.72c-1.26,3.35-2.66,6.64-4,10-.33.84-.65,1.37-1.71,1.36-5.44,0-10.88,0-16.63,0,1.4-3.33,2.7-6.47,4-9.59q11.11-26,22.23-52c.6-1.43,1.27-2,2.91-2,5.75.12,11.5.06,17.25,0,1.05,0,1.75.13,2.24,1.27q13.09,30.72,26.26,61.41A4.23,4.23,0,0,1,428.56,184.15Z"/><path class="cls-3" d="M76,184.15c-5.79,0-11.44,0-17.09,0-1.15,0-1.31-.75-1.61-1.48-1.35-3.31-2.76-6.6-4-9.95a2.15,2.15,0,0,0-2.44-1.62q-12.64.09-25.3,0a2,2,0,0,0-2.28,1.53c-1.29,3.41-2.71,6.78-4,10.17-.29.73-.49,1.34-1.49,1.34-5.64,0-11.28,0-16.92,0,8.82-20.58,17.58-41,26.26-61.38.68-1.59,1.41-2.25,3.24-2.2,5.67.15,11.34.07,17,0,1.06,0,1.75.14,2.23,1.27q13.05,30.65,26.18,61.24A7.47,7.47,0,0,1,76,184.15Z"/><path class="cls-3" d="M353.34,169.8c-2.17,4.69-4.25,9.12-6.27,13.57-.42.95-1.16.77-1.87.78-16,.29-27.84-10.43-29-26.41-.42-5.66-.4-11.31,1.27-16.85,3.38-11.23,12.26-18.71,23.92-19.89,7.36-.75,14.76-.23,22.13-.39,1.08,0,1.43.36,1.42,1.42,0,4-.07,7.91,0,11.87,0,1.46-.71,1.49-1.79,1.49-4.78,0-9.56,0-14.33,0C337,135.2,331.7,142.72,332,153.52a25.64,25.64,0,0,0,.81,5.51c1.69,6.5,6.91,10.48,14,10.76C348.89,169.87,351,169.8,353.34,169.8Z"/><path class="cls-3" d="M292,152.56c0-9.92,0-19.84,0-29.76,0-1.78.48-2.27,2.24-2.22,4,.13,8.05.08,12.08,0,1.26,0,1.85.18,1.85,1.68q-.07,30.19,0,60.4c0,1.2-.37,1.51-1.53,1.5-4.25-.06-8.5-.09-12.75,0-1.48,0-1.88-.41-1.87-1.87C292.07,172.4,292,162.48,292,152.56Z"/><path class="cls-4" d="M.73,468.11a5.39,5.39,0,0,0,2.64.28q266.21,0,532.41.05c2.25,0,2.83-.51,2.82-2.79q-.11-81.87-.08-163.74c0-.85.61-2-.58-2.59.31-.32.7-.43.8.1a13.65,13.65,0,0,1,.09,2.22v164c0,3.09,0,3.09-3.17,3.09H446.75c-1,0-1.94.05-2.91.08s-2.09-.08-3.13-.08q-218.53,0-437.07,0C2.67,468.65,1.53,469.16.73,468.11Z"/><path class="cls-3" d="M345.67,271.79l20.47,23c-6.7,0-12.93,0-19.16,0-1,0-1.41-.73-1.92-1.34q-8.4-9.9-16.77-19.82c-.84-1-5.88-1.89-6.86-1.19-.67.47-.34,1.24-.34,1.88,0,6.19-.06,12.39,0,18.59,0,1.38-.24,2-1.8,1.9-4.18-.11-8.36-.09-12.54,0-1.38,0-1.92-.24-1.92-1.8q.09-29.9,0-59.8c0-1.08,0-1.8,1.48-1.8,11.95.06,23.9-.19,35.84.11,10.77.26,18.63,7.29,19.69,16.91C363.2,260.35,357.67,268.47,345.67,271.79Z"/><path class="cls-3" d="M368.57,263.19c0-9.86.05-19.72-.05-29.58,0-1.83.57-2.17,2.25-2.16q23.64.09,47.27,0c1.73,0,2.34.4,2.26,2.21-.15,3.36-.12,6.73,0,10.08.06,1.58-.43,2-2,2-10.46-.07-20.91,0-31.37-.07-1.66,0-2.44.28-2.27,2.16a35.83,35.83,0,0,1,0,6c-.13,1.67.38,2.13,2.08,2.11,10.08-.09,20.16,0,30.24-.1,2.07,0,2.52.62,2.42,2.53-.15,3-.13,6.12,0,9.18.08,1.72-.39,2.26-2.19,2.25-10.08-.1-20.17,0-30.25-.09-1.88,0-2.45.49-2.3,2.34a45.35,45.35,0,0,1,0,6.49c-.11,1.63.47,1.95,2,1.94,10.46-.07,20.91,0,31.37-.09,1.94,0,2.36.58,2.28,2.38-.14,3.43-.11,6.87,0,10.3,0,1.4-.4,1.75-1.77,1.74q-24.07-.06-48.16,0c-1.51,0-1.83-.46-1.83-1.88C368.59,283.05,368.57,273.12,368.57,263.19Z"/><path class="cls-3" d="M116.25,263c0-9.86,0-19.71,0-29.56,0-1.54.37-2,2-2q23.85.08,47.69,0c1.47,0,2.12.25,2.06,1.92-.13,3.5-.11,7,0,10.52,0,1.52-.5,1.85-1.91,1.84-10.15,0-20.3,0-30.45,0-3.13,0-3.13,0-3.13,3.24,0,1.64.11,3.29,0,4.92s.35,2.14,2.07,2.12c10.07-.09,20.15,0,30.23-.09,1.86,0,2.43.47,2.34,2.34-.15,3.2-.13,6.42,0,9.63.07,1.59-.42,2-2,2-10.15-.07-20.31,0-30.46-.08-1.78,0-2.31.48-2.19,2.23a53.65,53.65,0,0,1,0,6.71c-.09,1.51.45,1.83,1.88,1.83,10.44-.06,20.89,0,31.34-.08,1.87,0,2.41.45,2.32,2.32-.16,3.43-.1,6.87,0,10.3,0,1.29-.22,1.8-1.69,1.8q-24.18-.09-48.36,0c-1.52,0-1.65-.61-1.65-1.84C116.26,283,116.25,273,116.25,263Z"/><path class="cls-3" d="M461.52,231.48c5.82,0,11.65,0,17.47,0,1.43,0,1.92.22,1.21,1.73-1.69,3.58-3.32,7.18-4.83,10.83a2.38,2.38,0,0,1-2.65,1.71q-12.66-.09-25.31,0c-4.09,0-6.61,2.95-5.67,6.44.64,2.37,2.57,3.72,5.44,3.78,5.67.1,11.34-.19,17,.18,10.79.7,17.39,6.65,17.78,16.08.51,12.2-5.65,20.46-16.49,22.2a58.87,58.87,0,0,1-9.38.42c-8.89,0-17.77,0-26.66,0-1.65,0-2.2-.35-2.12-2.08.14-3.35.17-6.72,0-10.07-.11-2,.64-2.28,2.4-2.26,10.16.08,20.31.05,30.47,0,3.59,0,5.76-2,5.71-5.15s-2.13-5-5.62-5.1c-5.08-.1-10.15-.08-15.23,0a25,25,0,0,1-6-.66c-10.7-2.58-14.71-11.46-13.37-21.16,1.43-10.44,9.35-16.76,20.6-16.89C451.36,231.43,456.44,231.48,461.52,231.48Z"/><path class="cls-3" d="M504.13,245.94c-3.12.68-5.08,2.68-4.66,5.16.54,3.12,2.16,4.84,5.58,4.83,5.37,0,10.74,0,16.1,0,1.08.42,2.24,0,3.32.31,2,.62,4.13,1,6.13,1.83,7.83,3.27,10.12,11.64,9.41,18.44-.58,5.6-2.62,10.6-7.39,14.1a22.15,22.15,0,0,1-13.2,4.22c-10.74.11-21.49,0-32.23.06-1.33,0-1.82-.28-1.78-1.71.11-3.58.13-7.16,0-10.74-.06-1.61.46-2,2-1.95,10.37.07,20.74,0,31.11,0a5.06,5.06,0,0,0,4.83-2.66,4.84,4.84,0,0,0-.27-5.3,5.71,5.71,0,0,0-5.06-2.34H502.35a21.68,21.68,0,0,1-8.7-1.79,15.39,15.39,0,0,1-9.06-9.9c-3.55-11.81,1.46-24,15.32-26.56.59-.1,1.16-.25,1.75-.37,5.14-.29,10.28-.09,15.43-.12q10-.06,19.92,0c.56,0,1.56-.66,1.75.62A137.94,137.94,0,0,0,533,245.33c-.54.82-1.36.4-2,.4-8.13,0-16.25,0-24.38,0A6,6,0,0,0,504.13,245.94Z"/><path class="cls-3" d="M240.36,263.24c0-9.93,0-19.86,0-29.79,0-1.55.38-2,2-2,11.65.06,23.29,0,34.94.05,12.21.09,20.23,7.85,20.77,20.76.48,11.67-6.9,20-18.11,21.56-6.9.94-13.86.33-20.8.32-2.24,0-2.66.65-2.6,2.72.15,5.37,0,10.75.08,16.13,0,1.43-.33,1.91-1.83,1.87-4.1-.11-8.21-.12-12.32,0-1.63.05-2.13-.34-2.12-2.06C240.41,283,240.36,273.09,240.36,263.24Z"/><path class="cls-3" d="M238.86,231.48l-12.93,16.1c-3.65,4.54-7.25,9.11-11,13.57-1,1.25-1.15,2-.08,3.33,7.42,9.16,14.73,18.4,22.07,27.63.64.79,1.25,1.61,2.1,2.71-6.75,0-13.14,0-19.52,0-.94,0-1.25-.67-1.7-1.25L205,276.88c-.36-.46-.74-.91-1.26-1.55-3.51,4.59-7.29,8.87-10.26,13.64s-6.48,6.7-12,5.95c-3.74-.5-7.6-.1-11.4-.1a4.32,4.32,0,0,1-.47-.06c-.25-.74.43-1,.76-1.45,7.53-9.45,15-18.91,22.67-28.29,1.07-1.32,1.23-2.1.09-3.51-7.62-9.38-15.12-18.85-22.65-28.31-.36-.44-.92-.77-.93-1.72,4.09,0,8.21.42,12.22-.1,5.71-.73,9.44,1.27,12.42,6.13,2.56,4.17,5.95,7.83,8.87,11.79.93,1.25,1.41,1.31,2.36,0,4.07-5.43,8.26-10.77,12.34-16.19a3.66,3.66,0,0,1,3.33-1.7C226.82,231.54,232.56,231.48,238.86,231.48Z"/><path class="cls-4" d="M213.93,221.32c.84-.71,1.85-.35,2.77-.35q159.38,0,318.74,0c3.11,0,3.11,0,3.11-3q0-142.12,0-284.25a6.76,6.76,0,0,0-.27-3.09c1,.73.54,1.79.54,2.69q0,47.6,0,95.19v189.7c0,3.58.32,3.19-3.29,3.19H216.61Z"/><path class="cls-4" d="M538.76,232.08c-.45-1.11-1.42-.57-2.11-.57q-17.5,0-35,.05c.49-.48,1.11-.36,1.69-.36q17,0,34,0C537.86,231.23,539.11,230.53,538.76,232.08Z"/><path class="cls-1" d="M504.13,245.94a8.71,8.71,0,0,1,3.52-.22c7.57,0,15.14,0,22.72,0a4.32,4.32,0,0,0,2.6-.37c-.33.84-1.08.65-1.71.65Z"/><path class="cls-1" d="M524.47,256.2a9.74,9.74,0,0,1-3.31-.31C522.26,256,523.42,255.5,524.47,256.2Z"/><path class="cls-1" d="M254.24,147.86c-2.68,0-5.37-.05-8.05,0-1.17,0-1.75-.18-1.71-1.56.1-3.27.09-6.55,0-9.83,0-1.35.52-1.6,1.71-1.59,5.3,0,10.59,0,15.88,0s8.28,3.79,7.07,8.24c-.74,2.73-3,4.45-6.41,4.6-2.82.13-5.66,0-8.49,0Z"/><path class="cls-1" d="M399.51,157.18H382.23c2.84-7.06,5.62-13.93,8.62-21.36Z"/><path class="cls-1" d="M38.26,135.8l8.63,21.31H29.67Z"/><path class="cls-1" d="M330.85,258.53c-2.76,0-5.52,0-8.28,0-1.15,0-1.56-.27-1.53-1.48.08-3.28.07-6.56,0-9.84,0-1.15.31-1.56,1.5-1.55,5.52,0,11-.07,16.55.06,4.15.1,6.82,2.82,6.77,6.51s-2.76,6.16-7,6.28h-8Z"/><path class="cls-1" d="M266.65,259.87c-2.91,0-5.82,0-8.72,0-1.05,0-1.42-.29-1.4-1.38.06-3.79.07-7.59,0-11.39,0-1.28.54-1.45,1.61-1.44,5.51,0,11-.05,16.53,0,4.49.07,7.16,3,7.08,7.43-.08,4.1-2.85,6.68-7.27,6.72C271.86,259.9,269.25,259.87,266.65,259.87Z"/></svg>