<svg id="Layer_1" data-name="Layer 1" xmlns="http://www.w3.org/2000/svg" viewBox="0 0 540 350"><defs><style>.cls-1{fill:#fff;}.cls-2{fill:#f7931a;}.cls-3{fill:#4d4d4d;}</style></defs><title>bitcoin-logo-color</title><g id="layer1"><g id="g10814"><g id="g10827"><g id="g10829"><circle id="circle10831" class="cls-1" cx="56.36" cy="151.4" r="56.36" transform="matrix(0.07, -1, 1, 0.07, -98.65, 196.88)"/><path id="path10833" class="cls-1" d="M81.21,143.36c1.12-7.5-4.59-11.53-12.4-14.22L71.34,119l-6.18-1.54-2.48,9.89c-1.62-.4-3.29-.78-5-1.16l2.48-10L54,114.66l-2.54,10.16c-1.33-.31-2.66-.61-3.94-.93v0L39,121.73l-1.64,6.61s4.59,1,4.49,1.11c2.51.63,3,2.29,2.89,3.61l-2.89,11.58a4.09,4.09,0,0,1,.64.2l-.65-.16-4,16.22A2.25,2.25,0,0,1,35,162.36c.06.09-4.5-1.12-4.5-1.12l-3.07,7.08,8.05,2c1.49.37,3,.77,4.41,1.14l-2.56,10.28,6.18,1.54L46,173.12q2.53.67,4.93,1.28l-2.53,10.12,6.19,1.55,2.56-10.27c10.55,2,18.48,1.19,21.82-8.35,2.69-7.68-.13-12.11-5.68-15,4-.94,7.08-3.6,7.9-9.09ZM67.08,163.18c-1.91,7.69-14.84,3.53-19,2.49l3.4-13.62c4.19,1,17.64,3.12,15.65,11.13ZM69,143.25c-1.75,7-12.51,3.44-16,2.57l3.07-12.36C59.56,134.34,70.8,136,69,143.25Z"/><path id="path10835" class="cls-1" d="M165.2,129.13A26.93,26.93,0,0,1,177,131.56a23.85,23.85,0,0,1,8.29,6.56,27.53,27.53,0,0,1,4.85,9.71,44.73,44.73,0,0,1,1.56,12,48.76,48.76,0,0,1-13.55,33.89A46.49,46.49,0,0,1,163.35,204a45.21,45.21,0,0,1-18.54,3.79c-.86,0-2.37,0-4.5-.07a65.36,65.36,0,0,1-7.35-.64,83.54,83.54,0,0,1-8.78-1.72,43.73,43.73,0,0,1-8.77-3.14L140.09,98.46,162.2,95l-8.84,36.81a35.62,35.62,0,0,1,5.71-2A26,26,0,0,1,165.2,129.13Zm-18.55,61.08a19.37,19.37,0,0,0,9.42-2.42,24.72,24.72,0,0,0,7.64-6.49,32.51,32.51,0,0,0,5.06-9.21,31.42,31.42,0,0,0,1.86-10.71q0-6.84-2.28-10.7c-1.52-2.56-4.34-3.85-8.42-3.85a26.76,26.76,0,0,0-5.2.71,13.05,13.05,0,0,0-5.79,3l-9.42,39.1c.57.09,1.08.19,1.5.28a11,11,0,0,0,1.34.21,14.4,14.4,0,0,0,1.72.08Z"/><path id="path10837" class="cls-1" d="M214.67,205.76H193.56l17.83-75h21.27ZM225,121.57a13.18,13.18,0,0,1-8-2.63c-2.39-1.76-3.57-4.44-3.57-8.07a13.42,13.42,0,0,1,1.2-5.63,15.28,15.28,0,0,1,3.22-4.57,15.78,15.78,0,0,1,4.63-3.07,14.32,14.32,0,0,1,5.64-1.14,13.16,13.16,0,0,1,8,2.64c2.37,1.76,3.56,4.46,3.56,8.06a13.26,13.26,0,0,1-1.22,5.65,14.83,14.83,0,0,1-3.2,4.56,15.35,15.35,0,0,1-4.64,3.06A13.69,13.69,0,0,1,225,121.57Z"/><path id="path10839" class="cls-1" d="M251.16,112l22.12-3.42-5.43,22.11h23.69l-4.28,17.41H263.72l-6.27,26.26a29.53,29.53,0,0,0-1,6.12,11.41,11.41,0,0,0,.71,4.93,6.25,6.25,0,0,0,3.07,3.21,14.14,14.14,0,0,0,6.35,1.15,33.85,33.85,0,0,0,6.65-.65,46.85,46.85,0,0,0,6.48-1.78l1.57,16.27a75.29,75.29,0,0,1-9.27,2.71,53.91,53.91,0,0,1-11.85,1.14q-9.84,0-15.27-2.92a17,17,0,0,1-7.71-8,25.42,25.42,0,0,1-2-11.62,74.7,74.7,0,0,1,2-13.84l14-59.08Z"/><path id="path10841" class="cls-1" d="M290.61,175.8a52.45,52.45,0,0,1,3.14-18.26,44.82,44.82,0,0,1,9-15,42.35,42.35,0,0,1,14.2-10.12,45.39,45.39,0,0,1,18.62-3.71A49.33,49.33,0,0,1,347,129.92a46.11,46.11,0,0,1,9.21,3.21L349,149.69c-1.9-.77-3.87-1.45-5.91-2.07a26.14,26.14,0,0,0-7.49-.92c-7.05,0-12.62,2.42-16.77,7.27s-6.22,11.37-6.22,19.55c0,4.86,1.05,8.77,3.15,11.77s5.95,4.5,11.56,4.5a37.33,37.33,0,0,0,8-.85,40.13,40.13,0,0,0,6.85-2.14l1.58,17a75.81,75.81,0,0,1-8.85,2.8,49.32,49.32,0,0,1-11.57,1.2,39.22,39.22,0,0,1-15-2.56,28.54,28.54,0,0,1-10.12-6.93,26.07,26.07,0,0,1-5.79-10.21A42.19,42.19,0,0,1,290.61,175.8Z"/><path id="path10843" class="cls-1" d="M384.43,207.76a34.34,34.34,0,0,1-13.14-2.29,24.24,24.24,0,0,1-9.2-6.41,27.87,27.87,0,0,1-5.48-9.78,39.29,39.29,0,0,1-1.85-12.47,55.2,55.2,0,0,1,2.77-17.13,48.67,48.67,0,0,1,8.21-15.4A43.76,43.76,0,0,1,379,133.06a36.47,36.47,0,0,1,18-4.35A34.85,34.85,0,0,1,410,131a24.62,24.62,0,0,1,9.29,6.42,28.09,28.09,0,0,1,5.47,9.78,39.35,39.35,0,0,1,1.86,12.48,57.18,57.18,0,0,1-2.7,17.14,49.5,49.5,0,0,1-8,15.4,42,42,0,0,1-13.2,11.2,37.5,37.5,0,0,1-18.34,4.35ZM395,146.7a13.33,13.33,0,0,0-8.26,2.7,23.12,23.12,0,0,0-6,6.85,33.8,33.8,0,0,0-3.65,9.06,39,39,0,0,0-1.2,9.35c0,4.75.77,8.46,2.28,11.13s4.27,4,8.27,4a13.22,13.22,0,0,0,8.28-2.72,23.24,23.24,0,0,0,6-6.84,34,34,0,0,0,3.65-9.06,39.55,39.55,0,0,0,1.21-9.35q0-7.12-2.29-11.13c-1.53-2.65-4.28-4-8.29-4Z"/><path id="path10845" class="cls-1" d="M449.67,205.76H428.53l17.85-75h21.27l-18,75Zm10.26-84.19a13.11,13.11,0,0,1-8-2.63c-2.38-1.76-3.57-4.44-3.57-8.07a13.28,13.28,0,0,1,1.21-5.63,14.9,14.9,0,0,1,3.21-4.57,15.82,15.82,0,0,1,4.64-3.07,14.2,14.2,0,0,1,5.63-1.14,13.13,13.13,0,0,1,8,2.64c2.37,1.76,3.57,4.46,3.57,8.06a13.56,13.56,0,0,1-1.22,5.65,14.69,14.69,0,0,1-3.21,4.56,15.43,15.43,0,0,1-4.63,3.06,13.79,13.79,0,0,1-5.65,1.14Z"/><path id="path10847" class="cls-1" d="M482.86,134.13c1.6-.47,3.39-1,5.33-1.64s4.14-1.19,6.58-1.7a80.79,80.79,0,0,1,8.13-1.3,91.36,91.36,0,0,1,10.19-.5q16.71,0,23.06,9.71t2.22,26.54l-9.71,40.52H507.4l9.42-39.67c.57-2.48,1-4.87,1.36-7.21a17.29,17.29,0,0,0-.08-6.13,7.4,7.4,0,0,0-2.64-4.29c-1.39-1.09-3.49-1.63-6.35-1.63a43.75,43.75,0,0,0-8.42.86l-13.84,58.07H465.58Z"/><path id="path10849" class="cls-1" d="M226.79,250.5,222.65,258h-4.48q4.72-8.53,9.24-15.73t8.9-13.58h4c.42,2.12.81,4.25,1.16,6.41s.69,4.42,1,6.79.66,4.87,1,7.52.63,5.51,1,8.59h-4.14c-.14-1.27-.27-2.54-.39-3.83s-.24-2.52-.38-3.7H226.79Zm12.39-3.3c-.22-2.28-.49-4.55-.78-6.81s-.64-4.58-1-7q-1.49,2.16-3.68,5.56t-5,8.23Z"/><path id="path10851" class="cls-1" d="M259.54,258.65a13.35,13.35,0,0,1-4.84-.8,9,9,0,0,1-5.58-5.86,15,15,0,0,1-.69-4.71,22.09,22.09,0,0,1,1.2-7.27,19.54,19.54,0,0,1,3.43-6.13,16.54,16.54,0,0,1,5.35-4.25,15.15,15.15,0,0,1,7-1.59,16.68,16.68,0,0,1,5.27.68,11.74,11.74,0,0,1,2.81,1.27l-1.69,3.38a12,12,0,0,0-6.6-1.77,10.07,10.07,0,0,0-5.24,1.37,13.21,13.21,0,0,0-3.93,3.55,16.38,16.38,0,0,0-2.45,4.91,18.18,18.18,0,0,0-.84,5.39q0,8.24,7.14,8.24a15.91,15.91,0,0,0,2.72-.21,17.58,17.58,0,0,0,2.14-.49,10.8,10.8,0,0,0,1.65-.61l1.27-.59.51,3.55a12.06,12.06,0,0,1-1.33.64,17.56,17.56,0,0,1-1.93.63,20.38,20.38,0,0,1-2.45.49,22.19,22.19,0,0,1-2.89.18Z"/><path id="path10853" class="cls-1" d="M283.38,258.65a13.38,13.38,0,0,1-4.84-.8A9.11,9.11,0,0,1,273,252a15,15,0,0,1-.69-4.71,22.09,22.09,0,0,1,1.2-7.27,19.54,19.54,0,0,1,3.43-6.13,16.54,16.54,0,0,1,5.35-4.25,15.16,15.16,0,0,1,7-1.59,16.61,16.61,0,0,1,5.26.68A11.74,11.74,0,0,1,297.3,230l-1.69,3.38a12,12,0,0,0-2.64-1.21,12.26,12.26,0,0,0-4-.56,10.07,10.07,0,0,0-5.24,1.37,13.13,13.13,0,0,0-3.94,3.55,16.38,16.38,0,0,0-2.45,4.91,18.18,18.18,0,0,0-.84,5.39q0,8.24,7.14,8.24a16.12,16.12,0,0,0,2.73-.21,17.84,17.84,0,0,0,2.13-.49,10.8,10.8,0,0,0,1.65-.61l1.27-.59.51,3.55a11.23,11.23,0,0,1-1.33.64,18.06,18.06,0,0,1-1.92.63,21,21,0,0,1-2.46.49,22.08,22.08,0,0,1-2.89.18Z"/><path id="path10855" class="cls-1" d="M294.83,258l7-29.3h17.29l-.8,3.43H305.1L303,241h11.75l-.81,3.34H302.22l-2.5,10.28h14.21l-.8,3.42Z"/><path id="path10857" class="cls-1" d="M331.47,228.42q5.13,0,7.72,2a6.6,6.6,0,0,1,2.6,5.66,10.84,10.84,0,0,1-1.07,5,9.25,9.25,0,0,1-3.07,3.45,14.24,14.24,0,0,1-4.78,2,27.63,27.63,0,0,1-6.22.65h-2.91L321.11,258H317L324,229.1a22,22,0,0,1,3.76-.55c1.33-.08,2.58-.13,3.76-.13Zm-.5,3.47a21.54,21.54,0,0,0-3.64.17l-2.79,11.62h2.67a21.71,21.71,0,0,0,3.63-.31,10.88,10.88,0,0,0,3.34-1.13,6.63,6.63,0,0,0,2.43-2.22,6.37,6.37,0,0,0,.95-3.65,3.68,3.68,0,0,0-1.77-3.45A9.56,9.56,0,0,0,331,231.89Z"/><path id="path10859" class="cls-1" d="M366.89,228.72l-.8,3.43h-8.84L351,258h-4.1l6.22-25.87h-8.84l.81-3.43Z"/><path id="path10861" class="cls-1" d="M363.17,258l7-29.3h17.29l-.8,3.43H373.44L371.33,241h11.76l-.81,3.34H370.57l-2.5,10.28h14.2l-.8,3.42Z"/><path id="path10863" class="cls-1" d="M399.76,228.42q6.51,0,9.73,3.07a10.88,10.88,0,0,1,3.21,8.26,21.62,21.62,0,0,1-1.14,7,16.37,16.37,0,0,1-3.56,5.94,16.89,16.89,0,0,1-6.15,4.1,23.78,23.78,0,0,1-8.94,1.52c-1.18,0-2.47-.06-3.85-.17a20.51,20.51,0,0,1-3.64-.59l6.81-28.46a23.27,23.27,0,0,1,3.77-.55c1.32-.07,2.58-.12,3.76-.12Zm-.34,3.47a23.19,23.19,0,0,0-3.8.17l-5.42,22.58a10.75,10.75,0,0,0,1.15.15c.53,0,1.41.06,2.62.06a15.54,15.54,0,0,0,6-1.12,12.94,12.94,0,0,0,4.54-3.13,13.93,13.93,0,0,0,2.87-4.78,17.46,17.46,0,0,0,1-6.07,7.64,7.64,0,0,0-2.16-5.79c-1.43-1.38-3.72-2.07-6.85-2.07Z"/><path id="path10865" class="cls-1" d="M444.28,258h-4.1l3.26-13.61H429.86L426.61,258h-4.1l7-29.3h4.1L430.67,241h13.57l3-12.26h4.1Z"/><path id="path10867" class="cls-1" d="M450.84,258l7-29.3h17.29l-.8,3.43H461.11L459,241h11.75l-.8,3.34H458.23l-2.49,10.28h14.2l-.8,3.42Z"/><path id="path10869" class="cls-1" d="M487.49,228.42a12.77,12.77,0,0,1,7.44,1.91,6.36,6.36,0,0,1,2.75,5.58,9.22,9.22,0,0,1-2.18,6.24,12.18,12.18,0,0,1-6.11,3.61c.34.59.73,1.34,1.18,2.26s.92,1.93,1.4,3,.94,2.27,1.39,3.47.85,2.36,1.19,3.49h-4.19c-.39-1.08-.8-2.16-1.22-3.26s-.86-2.16-1.3-3.17-.87-2-1.3-2.85-.85-1.67-1.21-2.35c-.37,0-.73.05-1.1.06s-.73,0-1.1,0h-3.26L477.12,258H473L480,229.1a22.09,22.09,0,0,1,3.76-.55c1.33-.08,2.58-.13,3.77-.13Zm-.51,3.47a21.47,21.47,0,0,0-3.63.17l-2.67,11.08h2.5a25.66,25.66,0,0,0,3.55-.25,11.27,11.27,0,0,0,3.32-1,6.57,6.57,0,0,0,2.45-2.07,6,6,0,0,0,.95-3.53,3.6,3.6,0,0,0-1.79-3.39,9.55,9.55,0,0,0-4.68-1Z"/><path id="path10871" class="cls-1" d="M498.07,258l7-29.3h17.29l-.8,3.43H508.34L506.23,241H518l-.8,3.34H505.46L503,254.6h14.2l-.8,3.42Z"/></g><g id="g10873"><g id="g10875"><g id="g10877"><g id="g10879"><g id="g10881"><circle id="circle10883" class="cls-2" cx="56.36" cy="147.71" r="56.36" transform="translate(-94.98 193.46) rotate(-85.93)"/><g id="g10885"><g id="g10887"><path id="path10889" class="cls-1" d="M81.21,139.68c1.12-7.5-4.59-11.54-12.4-14.23l2.53-10.16-6.18-1.55-2.48,9.9c-1.62-.4-3.29-.78-5-1.16l2.48-10L54,111l-2.54,10.17c-1.33-.31-2.66-.61-3.94-.93v0L39,118.05l-1.64,6.6s4.59,1,4.49,1.12c2.51.63,3,2.29,2.89,3.61L41.87,141a4.27,4.27,0,0,1,.64.21l-.65-.17-4,16.22A2.26,2.26,0,0,1,35,158.68c.06.09-4.5-1.12-4.5-1.12l-3.07,7.08,8.05,2c1.49.37,3,.76,4.41,1.13l-2.56,10.28,6.18,1.55L46,169.44q2.53.67,4.93,1.28l-2.53,10.12,6.19,1.54,2.56-10.26c10.55,2,18.48,1.19,21.82-8.35,2.69-7.68-.13-12.11-5.68-15,4-.94,7.08-3.6,7.9-9.09ZM67.08,159.5C65.17,167.18,52.24,163,48,162l3.4-13.61c4.19,1,17.64,3.11,15.65,11.13ZM69,139.57c-1.75,7-12.51,3.43-16,2.57l3.07-12.36C59.56,130.65,70.8,132.28,69,139.57Z"/></g></g></g></g><g id="g10891"><path id="path10893" class="cls-3" d="M165.2,125.45A27.07,27.07,0,0,1,177,127.87a24,24,0,0,1,8.29,6.57,27.53,27.53,0,0,1,4.85,9.71,44.68,44.68,0,0,1,1.56,12A48.76,48.76,0,0,1,178.19,190a46.65,46.65,0,0,1-14.84,10.26,45.2,45.2,0,0,1-18.54,3.78c-.86,0-2.37,0-4.5-.07a65.14,65.14,0,0,1-7.35-.63,89,89,0,0,1-8.78-1.72,43.73,43.73,0,0,1-8.77-3.14L140.09,94.78l22.11-3.43-8.84,36.81a33.77,33.77,0,0,1,5.71-2A25.45,25.45,0,0,1,165.2,125.45Zm-18.55,61.08a19.38,19.38,0,0,0,9.42-2.43,24.72,24.72,0,0,0,7.64-6.49,32.46,32.46,0,0,0,5.06-9.2,31.47,31.47,0,0,0,1.86-10.72q0-6.84-2.28-10.69c-1.52-2.56-4.34-3.85-8.42-3.85a26,26,0,0,0-5.2.71,13.05,13.05,0,0,0-5.79,3L139.52,186l1.5.28a11,11,0,0,0,1.34.22,16.86,16.86,0,0,0,1.72.08Z"/><path id="path10895" class="cls-3" d="M214.67,202.08H193.56L211.39,127h21.27ZM225,117.89a13.13,13.13,0,0,1-8-2.64c-2.39-1.75-3.57-4.44-3.57-8.06a13.42,13.42,0,0,1,1.2-5.63A15.15,15.15,0,0,1,217.81,97a15.78,15.78,0,0,1,4.63-3.07,14.14,14.14,0,0,1,5.64-1.14,13.16,13.16,0,0,1,8,2.64q3.55,2.64,3.56,8.06a13.18,13.18,0,0,1-1.22,5.64,14.87,14.87,0,0,1-3.2,4.57,15.35,15.35,0,0,1-4.64,3.06A13.86,13.86,0,0,1,225,117.89Z"/><path id="path10897" class="cls-3" d="M251.16,108.34l22.12-3.43L267.85,127h23.69l-4.28,17.41H263.72l-6.27,26.25a29.51,29.51,0,0,0-1,6.13,11.44,11.44,0,0,0,.71,4.93,6.2,6.2,0,0,0,3.07,3.2,14,14,0,0,0,6.35,1.15,33.85,33.85,0,0,0,6.65-.64,46.85,46.85,0,0,0,6.48-1.78L281.27,200a75.29,75.29,0,0,1-9.27,2.71,54,54,0,0,1-11.85,1.13q-9.84,0-15.27-2.91a17,17,0,0,1-7.71-8,25.42,25.42,0,0,1-2-11.62,74.8,74.8,0,0,1,2-13.85l14-59.07Z"/><path id="path10899" class="cls-3" d="M290.61,172.12a52.51,52.51,0,0,1,3.14-18.27,44.87,44.87,0,0,1,9-15,42.35,42.35,0,0,1,14.2-10.12A45.39,45.39,0,0,1,335.56,125,48.77,48.77,0,0,1,347,126.24a46.74,46.74,0,0,1,9.21,3.2L349,146c-1.9-.77-3.87-1.45-5.91-2.07a25.77,25.77,0,0,0-7.49-.93c-7.05,0-12.62,2.43-16.77,7.27s-6.22,11.37-6.22,19.56q0,7.28,3.15,11.77t11.56,4.49a36.71,36.71,0,0,0,8-.85,39.26,39.26,0,0,0,6.85-2.14l1.58,17a75.86,75.86,0,0,1-8.85,2.79,48.79,48.79,0,0,1-11.57,1.2,39,39,0,0,1-15-2.56,28.65,28.65,0,0,1-10.12-6.92,26.07,26.07,0,0,1-5.79-10.21A42.24,42.24,0,0,1,290.61,172.12Z"/><path id="path10901" class="cls-3" d="M384.43,204.08a34.34,34.34,0,0,1-13.14-2.29,24.26,24.26,0,0,1-9.2-6.42,27.73,27.73,0,0,1-5.48-9.77,39.29,39.29,0,0,1-1.85-12.47A55.26,55.26,0,0,1,357.53,156a48.78,48.78,0,0,1,8.21-15.4A43.9,43.9,0,0,1,379,129.37,36.58,36.58,0,0,1,397,125,34.65,34.65,0,0,1,410,127.31a24.51,24.51,0,0,1,9.29,6.42,28.09,28.09,0,0,1,5.47,9.78A39.35,39.35,0,0,1,426.66,156a57.07,57.07,0,0,1-2.7,17.13,49.55,49.55,0,0,1-8,15.41,41.83,41.83,0,0,1-13.2,11.19,37.51,37.51,0,0,1-18.34,4.36ZM395,143a13.33,13.33,0,0,0-8.26,2.7,23.29,23.29,0,0,0-6,6.86,33.87,33.87,0,0,0-3.65,9.05,39,39,0,0,0-1.2,9.35c0,4.76.77,8.47,2.28,11.14s4.27,4,8.27,4a13.22,13.22,0,0,0,8.28-2.72,23.37,23.37,0,0,0,6-6.84,34,34,0,0,0,3.65-9.06,39.55,39.55,0,0,0,1.21-9.35c0-4.75-.77-8.47-2.29-11.13s-4.28-4-8.29-4Z"/><path id="path10903" class="cls-3" d="M449.67,202.08H428.53L446.38,127h21.27l-18,75.05Zm10.26-84.19a13.06,13.06,0,0,1-8-2.64q-3.57-2.62-3.57-8.06a13.28,13.28,0,0,1,1.21-5.63A14.78,14.78,0,0,1,452.8,97a15.82,15.82,0,0,1,4.64-3.07,14,14,0,0,1,5.63-1.14,13.13,13.13,0,0,1,8,2.64c2.37,1.76,3.57,4.45,3.57,8.06a13.49,13.49,0,0,1-1.22,5.64,14.73,14.73,0,0,1-3.21,4.57,15.43,15.43,0,0,1-4.63,3.06,14,14,0,0,1-5.65,1.14Z"/><path id="path10905" class="cls-3" d="M482.86,130.45c1.6-.47,3.39-1,5.33-1.65s4.14-1.18,6.58-1.7a80.94,80.94,0,0,1,8.13-1.29,91.19,91.19,0,0,1,10.19-.51q16.71,0,23.06,9.72t2.22,26.53l-9.71,40.52H507.4l9.42-39.66c.57-2.48,1-4.87,1.36-7.21a17.29,17.29,0,0,0-.08-6.13,7.37,7.37,0,0,0-2.64-4.29c-1.39-1.09-3.49-1.64-6.35-1.64a43,43,0,0,0-8.42.87l-13.84,58.06H465.58Z"/></g></g><g id="g10907"><path id="path10909" class="cls-3" d="M226.79,246.81l-4.14,7.53h-4.48q4.72-8.55,9.24-15.73t8.9-13.58h4c.42,2.11.81,4.25,1.16,6.4s.69,4.42,1,6.79.66,4.88,1,7.53.63,5.51,1,8.58h-4.14c-.14-1.27-.27-2.54-.39-3.82s-.24-2.52-.38-3.7Zm12.39-3.29c-.22-2.29-.49-4.56-.78-6.81s-.64-4.59-1-7q-1.49,2.16-3.68,5.56t-5,8.22h10.48Z"/><path id="path10911" class="cls-3" d="M259.54,255a13.35,13.35,0,0,1-4.84-.8,9.1,9.1,0,0,1-5.58-5.86,15,15,0,0,1-.69-4.71,22.14,22.14,0,0,1,1.2-7.28,19.54,19.54,0,0,1,3.43-6.13,16.81,16.81,0,0,1,5.35-4.25,15.27,15.27,0,0,1,7-1.59,16.68,16.68,0,0,1,5.27.68,12.59,12.59,0,0,1,2.81,1.27l-1.69,3.39a11.78,11.78,0,0,0-2.64-1.21,12.31,12.31,0,0,0-4-.57,10.08,10.08,0,0,0-5.24,1.38,13.08,13.08,0,0,0-3.93,3.55,16.21,16.21,0,0,0-2.45,4.9,18.29,18.29,0,0,0-.84,5.4q0,8.24,7.14,8.24a15.91,15.91,0,0,0,2.72-.21,19.68,19.68,0,0,0,2.14-.49,10.8,10.8,0,0,0,1.65-.61c.48-.23.9-.43,1.27-.59l.51,3.55a14.46,14.46,0,0,1-1.33.63,15.57,15.57,0,0,1-1.93.64,18.67,18.67,0,0,1-2.45.48,20.53,20.53,0,0,1-2.89.19Z"/><path id="path10913" class="cls-3" d="M283.38,255a13.38,13.38,0,0,1-4.84-.8,9.17,9.17,0,0,1-5.58-5.86,15,15,0,0,1-.69-4.71,22.14,22.14,0,0,1,1.2-7.28,19.54,19.54,0,0,1,3.43-6.13,16.81,16.81,0,0,1,5.35-4.25,15.29,15.29,0,0,1,7-1.59,16.61,16.61,0,0,1,5.26.68,12.59,12.59,0,0,1,2.81,1.27l-1.69,3.39a11.57,11.57,0,0,0-2.64-1.21,12.24,12.24,0,0,0-4-.57,10.08,10.08,0,0,0-5.24,1.38,13,13,0,0,0-3.94,3.55,16.21,16.21,0,0,0-2.45,4.9,18.29,18.29,0,0,0-.84,5.4q0,8.24,7.14,8.24a16.12,16.12,0,0,0,2.73-.21,20,20,0,0,0,2.13-.49,10.8,10.8,0,0,0,1.65-.61c.48-.23.9-.43,1.27-.59L292,253a13.29,13.29,0,0,1-1.33.63,16,16,0,0,1-1.92.64,19.17,19.17,0,0,1-2.46.48,20.43,20.43,0,0,1-2.89.19Z"/><path id="path10915" class="cls-3" d="M294.83,254.34l7-29.31h17.29l-.8,3.43H305.1L303,237.3h11.75l-.81,3.34H302.22l-2.5,10.27h14.21l-.8,3.43Z"/><path id="path10917" class="cls-3" d="M331.47,224.74q5.13,0,7.72,1.94a6.63,6.63,0,0,1,2.6,5.67,10.84,10.84,0,0,1-1.07,5,9.3,9.3,0,0,1-3.07,3.44,14,14,0,0,1-4.78,2,27.63,27.63,0,0,1-6.22.65h-2.91l-2.63,10.91H317L324,225.42a22,22,0,0,1,3.76-.55c1.33-.09,2.58-.13,3.76-.13Zm-.5,3.46a21.54,21.54,0,0,0-3.64.17L324.54,240h2.67a21.74,21.74,0,0,0,3.63-.32,10.61,10.61,0,0,0,3.34-1.12,6.72,6.72,0,0,0,2.43-2.22,6.38,6.38,0,0,0,.95-3.66,3.66,3.66,0,0,0-1.77-3.44A9.45,9.45,0,0,0,331,228.2Z"/><path id="path10919" class="cls-3" d="M366.89,225l-.8,3.43h-8.84L351,254.34h-4.1l6.22-25.88h-8.84l.81-3.43Z"/><path id="path10921" class="cls-3" d="M363.17,254.34l7-29.31h17.29l-.8,3.43H373.44l-2.11,8.84h11.76l-.81,3.34H370.57l-2.5,10.27h14.2l-.8,3.43Z"/><path id="path10923" class="cls-3" d="M399.76,224.74q6.51,0,9.73,3.06a10.92,10.92,0,0,1,3.21,8.27,21.62,21.62,0,0,1-1.14,7A16.37,16.37,0,0,1,408,249a17,17,0,0,1-6.15,4.1,23.78,23.78,0,0,1-8.94,1.52c-1.18,0-2.47-.06-3.85-.17a20.51,20.51,0,0,1-3.64-.59l6.81-28.46a22.21,22.21,0,0,1,3.77-.55c1.32-.08,2.58-.12,3.76-.12Zm-.34,3.46a23.19,23.19,0,0,0-3.8.17L390.2,251a9.08,9.08,0,0,0,1.15.14c.53,0,1.41.07,2.62.07a15.72,15.72,0,0,0,6-1.12,12.94,12.94,0,0,0,4.54-3.13,14,14,0,0,0,2.87-4.78,17.46,17.46,0,0,0,1-6.07,7.64,7.64,0,0,0-2.16-5.79c-1.43-1.38-3.72-2.08-6.85-2.08Z"/><path id="path10925" class="cls-3" d="M444.28,254.34h-4.1l3.26-13.62H429.86l-3.25,13.62h-4.1l7-29.31h4.1l-2.95,12.27h13.57l3-12.27h4.1Z"/><path id="path10927" class="cls-3" d="M450.84,254.34l7-29.31h17.29l-.8,3.43H461.11L459,237.3h11.75l-.8,3.34H458.23l-2.49,10.27h14.2l-.8,3.43Z"/><path id="path10929" class="cls-3" d="M487.49,224.74a12.85,12.85,0,0,1,7.44,1.9,6.37,6.37,0,0,1,2.75,5.59,9.17,9.17,0,0,1-2.18,6.23,12.19,12.19,0,0,1-6.11,3.62c.34.58.73,1.34,1.18,2.26s.92,1.93,1.4,3,.94,2.27,1.39,3.47.85,2.36,1.19,3.48h-4.19c-.39-1.07-.8-2.16-1.22-3.25s-.86-2.16-1.3-3.17-.87-2-1.3-2.85-.85-1.68-1.21-2.35c-.37,0-.73,0-1.1.06s-.73,0-1.1,0h-3.26l-2.75,11.55H473L480,225.41a23.14,23.14,0,0,1,3.76-.55c1.33-.08,2.58-.12,3.77-.12ZM487,228.2a21.47,21.47,0,0,0-3.63.17l-2.67,11.08h2.5a25.66,25.66,0,0,0,3.55-.25,10.71,10.71,0,0,0,3.32-1,6.48,6.48,0,0,0,2.45-2.07,5.94,5.94,0,0,0,.95-3.52,3.6,3.6,0,0,0-1.79-3.39,9.44,9.44,0,0,0-4.68-1Z"/><path id="path10931" class="cls-3" d="M498.07,254.34l7-29.31h17.29l-.8,3.43H508.34l-2.11,8.84H518l-.8,3.34H505.46L503,250.91h14.2l-.8,3.43Z"/></g></g></g></g></g></g></svg>