<svg id="Layer_1" data-name="Layer 1" xmlns="http://www.w3.org/2000/svg" viewBox="0 0 176.27 152.7"><defs><style>.cls-1,.cls-2{fill:#231f20;}.cls-1{stroke:#231f20;stroke-miterlimit:10;}</style></defs><title>dentech911-logo-320px</title><path class="cls-1" d="M126.85,184.34q4.29-6.34,7.51-11.23a57.85,57.85,0,0,0,5.27-10,30.39,30.39,0,0,1-5.62,8.15,37.28,37.28,0,0,1-17,10.12,40,40,0,0,1-24.48-1.2,31.92,31.92,0,0,1-10.89-7.12A31.07,31.07,0,0,1,74.7,162.3a37.8,37.8,0,0,1-2.4-13.63,33.54,33.54,0,0,1,10.6-24.88,35.08,35.08,0,0,1,11.66-7.2A40.52,40.52,0,0,1,109.18,114a35.21,35.21,0,0,1,13.68,2.62,32.15,32.15,0,0,1,10.94,7.42A34.19,34.19,0,0,1,141,135.63a41.45,41.45,0,0,1,2.62,15.09,31.1,31.1,0,0,1-1,8.07,47.23,47.23,0,0,1-3,7.93,83.41,83.41,0,0,1-4.76,8.57q-2.83,4.5-6.51,9.91L94.94,234.94c-.16.29-.34.45-.51.47a2.94,2.94,0,0,1-.51.05H92.2Zm-20.24-3.26a35.65,35.65,0,0,0,25.85-10.37,31.22,31.22,0,0,0,6.82-10.17,28.63,28.63,0,0,0,2.32-11A36.82,36.82,0,0,0,139.16,136a32.5,32.5,0,0,0-6.78-10.72,30.82,30.82,0,0,0-10.25-7,32.55,32.55,0,0,0-12.95-2.53,39.57,39.57,0,0,0-14,2.4,32.72,32.72,0,0,0-11,6.74,29.85,29.85,0,0,0-7.2,10.42,33.89,33.89,0,0,0-2.58,13.38,36.63,36.63,0,0,0,2.36,13.46,28.34,28.34,0,0,0,16.81,16.68A36.3,36.3,0,0,0,106.61,181.08Z" transform="translate(-71.8 -83.26)"/><rect class="cls-2" x="104.92" y="31.07" width="1.96" height="121.13"/><rect class="cls-2" x="174.26" y="31.07" width="1.96" height="121.13"/><path class="cls-2" d="M128.78,103.09v.41a14.35,14.35,0,0,0,.56,4.25,8.63,8.63,0,0,0,1.59,3.08,6.6,6.6,0,0,0,2.51,1.87,8.2,8.2,0,0,0,3.28.62,9.74,9.74,0,0,0,2.8-.35,10.66,10.66,0,0,0,2-.8,11.7,11.7,0,0,0,1.29-.8,1.44,1.44,0,0,1,.69-.36.5.5,0,0,1,.43.22l.56.69a5.67,5.67,0,0,1-1.37,1.21,10.24,10.24,0,0,1-1.9,1,13.32,13.32,0,0,1-2.24.64,12.23,12.23,0,0,1-2.41.24,10.24,10.24,0,0,1-4-.77,8.55,8.55,0,0,1-3.11-2.24,10.22,10.22,0,0,1-2-3.59,15.47,15.47,0,0,1-.7-4.87,13.28,13.28,0,0,1,.66-4.27,9.73,9.73,0,0,1,1.89-3.37,8.71,8.71,0,0,1,3-2.21,9.84,9.84,0,0,1,4.08-.8,9.1,9.1,0,0,1,3.37.62,7.7,7.7,0,0,1,2.7,1.83,8.62,8.62,0,0,1,1.8,3,11.29,11.29,0,0,1,.66,4,1.18,1.18,0,0,1-.13.64.5.5,0,0,1-.43.18Zm14.32-1.32a9.34,9.34,0,0,0-.48-3.1,6.58,6.58,0,0,0-1.37-2.32,6,6,0,0,0-2.11-1.46,6.88,6.88,0,0,0-2.68-.51,8,8,0,0,0-3,.52,6.54,6.54,0,0,0-2.28,1.49,7.57,7.57,0,0,0-1.54,2.33,10.92,10.92,0,0,0-.78,3Z" transform="translate(-71.8 -83.26)"/><path class="cls-2" d="M152.51,97A12.15,12.15,0,0,1,156,94a8.53,8.53,0,0,1,4.34-1.12,8.16,8.16,0,0,1,3.12.56A5.62,5.62,0,0,1,165.64,95,7.13,7.13,0,0,1,167,97.58a11.6,11.6,0,0,1,.45,3.37v13.73h-2.07V101A7.35,7.35,0,0,0,164,96.21a5.05,5.05,0,0,0-4.2-1.72,7.65,7.65,0,0,0-3.92,1.07,11.07,11.07,0,0,0-3.25,3v16.15h-2.07V93.19h1.15a.57.57,0,0,1,.62.54Z" transform="translate(-71.8 -83.26)"/><path class="cls-2" d="M189.55,86H178.82V235.46H176.6V86H165.82V84.12h23.73Z" transform="translate(-71.8 -83.26)"/><path class="cls-2" d="M189.07,103.09v.41a14.69,14.69,0,0,0,.56,4.25,8.81,8.81,0,0,0,1.6,3.08,6.57,6.57,0,0,0,2.5,1.87,8.23,8.23,0,0,0,3.28.62,9.81,9.81,0,0,0,2.81-.35,11,11,0,0,0,2-.8,10.57,10.57,0,0,0,1.28-.8,1.46,1.46,0,0,1,.7-.36.51.51,0,0,1,.43.22l.56.69a5.86,5.86,0,0,1-1.37,1.21,10.24,10.24,0,0,1-1.9,1,13.88,13.88,0,0,1-2.24.64,12.23,12.23,0,0,1-2.41.24,10.2,10.2,0,0,1-4-.77,8.47,8.47,0,0,1-3.11-2.24,10.07,10.07,0,0,1-2-3.59,15.46,15.46,0,0,1-.71-4.87,13.28,13.28,0,0,1,.66-4.27,9.75,9.75,0,0,1,1.9-3.37,8.68,8.68,0,0,1,3-2.21,9.89,9.89,0,0,1,4.09-.8,9.1,9.1,0,0,1,3.37.62,7.66,7.66,0,0,1,2.69,1.83,8.47,8.47,0,0,1,1.8,3,11.29,11.29,0,0,1,.66,4,1.09,1.09,0,0,1-.13.64.49.49,0,0,1-.43.18Zm14.33-1.32a9.33,9.33,0,0,0-.49-3.1,6.43,6.43,0,0,0-1.37-2.32,5.93,5.93,0,0,0-2.1-1.46,6.9,6.9,0,0,0-2.69-.51,7.91,7.91,0,0,0-3,.52,6.54,6.54,0,0,0-2.28,1.49A7.39,7.39,0,0,0,190,98.72a10.92,10.92,0,0,0-.78,3Z" transform="translate(-71.8 -83.26)"/><path class="cls-2" d="M225.27,96.07l-.2.18a.46.46,0,0,1-.27.08,1.08,1.08,0,0,1-.59-.3,7.22,7.22,0,0,0-1-.63,8.37,8.37,0,0,0-1.56-.64,8,8,0,0,0-2.28-.29,7.79,7.79,0,0,0-3.29.66A6.58,6.58,0,0,0,213.67,97a8.12,8.12,0,0,0-1.5,3,14,14,0,0,0-.51,3.93,13.69,13.69,0,0,0,.53,4,8.49,8.49,0,0,0,1.5,2.94,6.36,6.36,0,0,0,2.35,1.83,7.28,7.28,0,0,0,3.06.63,8,8,0,0,0,2.6-.37,8.81,8.81,0,0,0,1.73-.8,6.58,6.58,0,0,0,1.06-.8,1.13,1.13,0,0,1,.65-.37.54.54,0,0,1,.43.22l.54.69a6.28,6.28,0,0,1-1.25,1.21,8.46,8.46,0,0,1-1.7,1,10.11,10.11,0,0,1-2.06.64,11.7,11.7,0,0,1-2.32.23,9.17,9.17,0,0,1-3.75-.75,8.24,8.24,0,0,1-2.91-2.16,10.24,10.24,0,0,1-1.9-3.47,16.07,16.07,0,0,1,0-9.15,10,10,0,0,1,1.9-3.5,8.53,8.53,0,0,1,3-2.28,10,10,0,0,1,4.13-.81,9.52,9.52,0,0,1,3.71.67,9.14,9.14,0,0,1,2.83,1.81Z" transform="translate(-71.8 -83.26)"/><path class="cls-2" d="M233.25,96.82a12.21,12.21,0,0,1,3.4-2.89,8.53,8.53,0,0,1,4.28-1.08,8.16,8.16,0,0,1,3.12.56A5.62,5.62,0,0,1,246.28,95a7.13,7.13,0,0,1,1.34,2.55,11.6,11.6,0,0,1,.45,3.37V235.46H246V101a7.35,7.35,0,0,0-1.38-4.74,5.05,5.05,0,0,0-4.2-1.72,7.63,7.63,0,0,0-3.92,1.07,11,11,0,0,0-3.25,3v16.15h-2.07V83.26h2.07Z" transform="translate(-71.8 -83.26)"/><path d="M121.07,93.23a13.91,13.91,0,0,0-3.1-4.85,14.3,14.3,0,0,0-4.88-3.19,17.78,17.78,0,0,0-10.91-.54,16.48,16.48,0,0,0-4.13,1.76l-.38.25v26a15.6,15.6,0,0,0,1.91,1,16,16,0,0,0,6.11,1.17,18.17,18.17,0,0,0,6.5-1.15,15.72,15.72,0,0,0,5.21-3.22,14.8,14.8,0,0,0,3.47-4.91,15,15,0,0,0,1.27-6.22A16.91,16.91,0,0,0,121.07,93.23Zm-1.9,11.66a12.46,12.46,0,0,1-3,4.34,13.67,13.67,0,0,1-4.59,2.81,16.67,16.67,0,0,1-5.89,1,13.7,13.7,0,0,1-5.41-1.06c-.13,0-.24-.12-.37-.18V87.35c.23-.11.44-.24.68-.35a16.42,16.42,0,0,1,11.69-.26,11.75,11.75,0,0,1,7,6.93,15.47,15.47,0,0,1,1,5.63A14.28,14.28,0,0,1,119.17,104.89Z" transform="translate(-71.8 -83.26)"/></svg>