<svg id="Layer_1" data-name="Layer 1" xmlns="http://www.w3.org/2000/svg" viewBox="0 0 537 350"><defs><style>.cls-1{fill:#f4f4f4;}.cls-2{fill:#f79f1a;}.cls-3{fill:#ea001b;}.cls-4{fill:#ff5f01;}</style></defs><title>mastercard-logo-color</title><g id="Page-1"><g id="mastercard"><rect id="Rectangle-1" class="cls-1" x="1" y="7.01" width="535" height="335.98" rx="28.53" ry="28.53"/><g id="mark"><g id="text"><path id="path3078" d="M442.25,308.14a3,3,0,0,0-2.14.86,2.91,2.91,0,0,0,0,4.15,3.1,3.1,0,0,0,2.14.87,3,3,0,0,0,2.11-.87,2.9,2.9,0,0,0,0-4.15,3,3,0,0,0-2.12-.86Zm0,5.23a2.3,2.3,0,0,1-1.63-.67,2.25,2.25,0,0,1-.66-1.62,2.22,2.22,0,0,1,.66-1.62,2.3,2.3,0,0,1,1.63-.67,2.27,2.27,0,0,1,2.27,2.29,2.33,2.33,0,0,1-.66,1.62,2.28,2.28,0,0,1-1.61.67Zm.18-3.67h-1.26v2.73h.58v-1H442l.83,1h.7l-.89-1a1,1,0,0,0,.64-.27.81.81,0,0,0-.06-1.19,1.18,1.18,0,0,0-.8-.24Zm0,.51a.68.68,0,0,1,.37.09.32.32,0,0,1,.13.27.33.33,0,0,1-.13.28.68.68,0,0,1-.37.09h-.67v-.73Z"/><path id="path3006" d="M115.28,312.14H109V283h6.13v3.55s5.38-4.34,8.57-4.29c6.21.11,9.92,5.39,9.92,5.39a11.55,11.55,0,0,1,9.8-5.39A11.28,11.28,0,0,1,155,291.43V312h-6V293.88s0-5.51-6.49-5.51c-6.74,0-7.35,5.51-7.35,5.51V312h-6.25V293.76s-.6-5.76-6.24-5.76c-7.33,0-7.47,5.88-7.47,5.88l.12,18.26Z"/><path id="path3008" d="M305.21,282.24c-3.2-.06-8.57,4.29-8.57,4.29V283h-6.13v29.16h6.25l-.12-18.26s.13-5.87,7.47-5.87a6.07,6.07,0,0,1,3.25.84v0l2-5.68a11.25,11.25,0,0,0-4.19-.91Z"/><path id="path3013" d="M393.18,282.24c-3.19-.06-8.57,4.29-8.57,4.29V283h-6.13v29.16h6.25l-.12-18.26s.14-5.87,7.47-5.87a6.13,6.13,0,0,1,3.26.84v0l2-5.68a11.16,11.16,0,0,0-4.19-.91Z"/><path id="path3015" d="M175.15,282.12c-9.35,0-14.29,8.4-14.32,15.43,0,7.2,5.63,15.5,14.58,15.5,5.23,0,9.51-3.86,9.51-3.86v3h6.15V283h-6.17v3.68s-4-4.53-9.74-4.53Zm1.2,5.94c5,0,9.1,4.37,9.1,9.75s-4.08,9.73-9.1,9.73-9.08-4.35-9.08-9.73,4.06-9.75,9.08-9.75Z"/><path id="path3020" d="M354.43,282.12c-9.35,0-14.29,8.4-14.32,15.43,0,7.2,5.63,15.5,14.58,15.5,5.22,0,9.51-3.86,9.51-3.86v3h6.15V283h-6.17v3.68s-4-4.53-9.74-4.53Zm1.2,5.94c5,0,9.09,4.37,9.09,9.75s-4.07,9.73-9.09,9.73-9.08-4.35-9.08-9.73,4.05-9.75,9.08-9.75Z"/><path id="path3022" d="M413.45,282.12c-9.34,0-14.29,8.4-14.31,15.43,0,7.2,5.63,15.5,14.58,15.5,5.22,0,9.51-3.86,9.51-3.86v3h6.14V271.45h-6.17v15.2s-4-4.53-9.74-4.53Zm1.2,5.94c5,0,9.1,4.37,9.1,9.75s-4.08,9.73-9.1,9.73-9.07-4.35-9.07-9.73,4.05-9.75,9.07-9.75Z"/><path id="path3024" d="M209.82,313.12c-6.37,0-12.25-3.92-12.25-3.92l2.7-4.17s5.56,2.58,9.55,2.58c2.59,0,6.93-.84,7-3.43,0-2.74-7.29-3.56-7.29-3.56s-11-.15-11-9.19c0-5.68,5.48-9.31,12.49-9.31,4.06,0,11.64,3.55,11.64,3.55l-3.07,4.78s-5.85-2.34-8.94-2.45c-2.6-.09-5.75,1.16-5.75,3.43,0,6.19,18.25-.48,18.25,12,0,8.2-7.44,9.68-13.35,9.68Z"/><path id="path3026" d="M233.31,274.52V283h-5.44v6.13h5.44V303.8s-.48,9.92,10.17,9.92c3,0,8.72-2.18,8.72-2.18l-2.47-6.37a8.36,8.36,0,0,1-4.88,1.89c-4.93-.13-4.79-3.28-4.79-3.28V289.14h10.15V283H240.06v-8.49Z"/><path id="path3034" d="M270.3,282.48c-10,0-15,8.26-15,15.43,0,7.37,4.56,15.67,15.59,15.67,4.72,0,11.35-4.15,11.35-4.15l-2.85-5s-4.53,3.21-8.5,3.21c-8,0-8.48-7.78-8.48-7.78h21.31s1.59-17.42-13.43-17.42Zm-.91,5.72h.74c7.5,0,7.45,7.1,7.45,7.1H262.42s-.36-6.68,7-7.1Z"/><path id="path3037" d="M333.68,304.4l2.86,5.71a20,20,0,0,1-9.61,2.95c-10.52,0-16.37-7.92-16.37-15.42,0-11.79,9.3-15.25,15.59-15.25a21.68,21.68,0,0,1,10.65,3.29l-3.2,5.72s-2-3-7.62-3-8.66,4.89-8.66,9.53c0,5.2,3.48,9.62,8.74,9.62,4.13,0,7.62-3.12,7.62-3.12Z"/></g><path id="path3057" class="cls-2" d="M446.48,205.77v-3.94h-1l-1.18,2.71-1.18-2.71h-1v3.94h.73v-3l1.11,2.56h.75l1.11-2.57v3Zm-6.51,0V202.5h1.32v-.66h-3.35v.66h1.32v3.27Z"/><path id="path2997" class="cls-2" d="M446.69,147.22c0,60.94-49.28,110.34-110.06,110.34s-110.06-49.4-110.06-110.34S275.85,36.89,336.63,36.89s110.06,49.4,110.06,110.33Z"/><path id="path2995" class="cls-3" d="M310.91,147.22c0,60.94-49.27,110.34-110,110.34S90.8,208.16,90.8,147.22,140.07,36.89,200.86,36.89s110.05,49.4,110.05,110.33Z"/><path id="path2999" class="cls-4" d="M268.74,60.37a110.55,110.55,0,0,0,0,173.71,110.53,110.53,0,0,0,0-173.71Z"/></g></g></g></svg>