<svg id="Layer_1" data-name="Layer 1" xmlns="http://www.w3.org/2000/svg" viewBox="0 0 540 350"><defs><style>.cls-1{fill:#0e4595;}.cls-2{fill:#fff;}.cls-3{fill:#f2ae14;}</style></defs><title>visa-logo-color</title><g id="Page-1"><g id="visa"><rect id="Rectangle-1" class="cls-1" x="-0.7" y="5" width="541.4" height="340" rx="28.87" ry="28.87"/><path id="Shape" class="cls-2" d="M200.12,246.27,224.2,105h38.52l-24.1,141.32Z"/><path id="path13" class="cls-2" d="M377.78,108a99.57,99.57,0,0,0-34.52-5.93c-38.06,0-64.87,19.16-65.1,46.63C278,169,297.3,180.33,311.91,187.09c15,6.93,20,11.35,20,17.53-.09,9.48-12,13.8-23,13.8-15.42,0-23.61-2.14-36.26-7.41l-5-2.25-5.41,31.63c9,4,25.63,7.37,42.91,7.54,40.49,0,66.77-18.94,67.07-48.28.15-16.07-10.12-28.31-32.34-38.39-13.46-6.54-21.71-10.9-21.62-17.52,0-5.87,7-12.15,22.06-12.15A71.07,71.07,0,0,1,369.11,137l3.45,1.63L377.78,108"/><path id="Path" class="cls-2" d="M476.9,105H447.13c-9.22,0-16.12,2.52-20.17,11.72l-57.2,129.51h40.45s6.61-17.41,8.11-21.24l49.33.06c1.15,4.95,4.68,21.18,4.68,21.18h35.74L476.9,105ZM429.68,196.2c3.18-8.14,15.34-39.5,15.34-39.5-.23.38,3.16-8.18,5.11-13.49l2.6,12.19s7.38,33.73,8.92,40.8Z"/><path id="path16" class="cls-2" d="M167.42,105l-37.71,96.37-4-19.58c-7-22.58-28.9-47-53.35-59.28L106.83,246l40.76,0,60.64-141H167.42"/><path id="path18" class="cls-3" d="M94.53,105H32.42l-.49,2.94c48.32,11.7,80.29,40,93.56,73.93L112,116.88c-2.33-8.94-9.1-11.61-17.46-11.93"/></g></g></svg>