<svg id="Layer_1" data-name="Layer 1" xmlns="http://www.w3.org/2000/svg" viewBox="0 0 540 350"><defs><style>.cls-1{fill:#1a1f70;}.cls-2{fill:#f6b500;}.cls-3{fill:#1a1f71;}.cls-4{fill:#fcfcfc;}.cls-5{fill:#fefefe;}</style></defs><title>visa-electron-logo-color</title><path class="cls-1" d="M269.86,7h268.2c1.88,0,1.88,0,1.88,1.88,0,15,0,30,0,45,0,1.28-.31,1.64-1.62,1.64q-268.47,0-536.95,0C.32,55.42,0,55.18,0,54.07Q.07,31.26,0,8.42c0-1.24.3-1.5,1.51-1.5Q135.7,7,269.86,7Z"/><path class="cls-2" d="M0,343c0-.55,0-1.11,0-1.67V296.79c0-2,0-2,2.09-2H538c2,0,2,0,2,2q0,22.28,0,44.54c0,.55,0,1.11,0,1.67-.52.46-1.15.22-1.72.22H1.6C1.07,343.2.49,343.41,0,343Z"/><path class="cls-3" d="M346.48,225c1.73-4.13,3.47-8.26,5.18-12.4,1.8-4.34,3.54-8.7,5.36-13,2.52-6,5.17-11.9,7.6-17.92,1.53-3.77,3.21-7.49,4.66-11.3s3.14-7.31,4.68-11c1.81-4.33,3.53-8.71,5.35-13.05,2-4.86,4.19-9.69,6.23-14.56s4-9.87,6.07-14.78a114.93,114.93,0,0,1,4.68-10.57,13.7,13.7,0,0,1,10.37-7.07,40.14,40.14,0,0,1,6.39-.25c7.63,0,15.27,0,22.9,0,1,0,1.38.29,1.56,1.18,1.21,6,2.42,12,3.67,17.94s2.54,11.93,3.79,17.91c1.36,6.51,2.66,13,4,19.54,1.52,7.27,3.09,14.53,4.61,21.8,1.46,7,2.87,13.92,4.32,20.88q2.28,10.9,4.61,21.8a30.16,30.16,0,0,0,1.22,5.3c-.16.45-.54.28-.83.28H434.14c-.27,0-.56.07-.77-.19-.46-2-.94-4-1.38-6.06-.73-3.37-1.43-6.75-2.14-10.13-.18-.81-.33-1.64-.49-2.46a1.71,1.71,0,0,0-1.09-.14H388.63a1.76,1.76,0,0,0-1.08.14c-1.74,3.9-3,8-4.45,12a54.57,54.57,0,0,0-2.28,6.59c-.28.48-.75.24-1.13.24q-16,0-32,0C347.26,225.64,346.4,226.07,346.48,225Z"/><path class="cls-3" d="M124.82,225.46q-1.65-6.37-3.32-12.73c-1.56-5.92-3.16-11.82-4.7-17.75-1.26-4.84-2.43-9.71-3.67-14.56-1.61-6.27-3.26-12.54-4.89-18.8q-1.9-7.27-3.78-14.56c-.57-2.22-1.12-4.45-1.63-6.68a5.24,5.24,0,0,0-.4-.86c-.31-.43-.6-.85-.25-1.4-.54-2.13-1.09-4.26-1.59-6.4a5.22,5.22,0,0,0-.39-.86,1.75,1.75,0,0,1-.28-1.11,27,27,0,0,0-1.39-5.31,1.75,1.75,0,0,1-.29-1.11c-.85-4.71-3.56-7.86-7.82-10a123.16,123.16,0,0,0-19-7.22,2.2,2.2,0,0,0-.52,0,1.84,1.84,0,0,1-1.11-.31,37.56,37.56,0,0,0-6.1-1.72,30.12,30.12,0,0,0-4-.89c-.7-.07-1.06-.45-.78-1.5.66-2.55.52-2.59,3.08-2.59h52.49a15.59,15.59,0,0,1,10.69,3.78,16.27,16.27,0,0,1,5.22,9.5c.93,4.73,1.79,9.47,2.67,14.21q1.89,10.15,3.78,20.32c.87,4.6,1.79,9.19,2.65,13.79,1.27,6.77,2.49,13.55,3.79,20.31a14.56,14.56,0,0,0,.92,3.77c2.92-7.45,5.74-14.71,8.61-21.94,3-7.54,6-15.06,9-22.6,2.52-6.39,4.94-12.81,7.46-19.18s5.13-12.73,7.69-19.1c.07-.16.08-.35.14-.53.75-2.33.75-2.33,3.16-2.33h32.23c-1.35,3.26-2.65,6.43-4,9.59q-6,14.19-11.92,28.37-5.72,13.62-11.43,27.24-6.31,15.09-12.61,30.18l-11.86,28.26c-.35.84-.64,1.7-.95,2.56-.26.44-.69.41-1.11.41H125.45A.71.71,0,0,1,124.82,225.46Z"/><path class="cls-3" d="M316.54,123.57c-5.27.55-10.12,1.93-13.22,6.71a4.67,4.67,0,0,0-1,3,4.23,4.23,0,0,0,0,2.15c.15,2.41,1.64,4.05,3.3,5.52a51.75,51.75,0,0,0,10.1,6.43c5.93,3.14,11.93,6.14,17.38,10.1a37.21,37.21,0,0,1,11.54,12.68A31.52,31.52,0,0,1,348,181.41a40.79,40.79,0,0,1,0,5.85c0,.44-.05.88-.07,1.32-.26.46,0,1-.22,1.47a44.53,44.53,0,0,1-3.41,11.28,40,40,0,0,1-12.06,14.56A51.51,51.51,0,0,1,317,223.71a66.23,66.23,0,0,1-15.41,3.21c-.86.07-1.72.22-2.59.32-.58.22-1.22,0-1.8.21l-2.94.07a33.49,33.49,0,0,1-5.3,0l-3.25-.08c-.76-.29-1.57,0-2.33-.21l-1.54-.07c-.49-.23-1,0-1.53-.21l-1-.07c-.46-.26-1,0-1.47-.21a88,88,0,0,1-16.69-3.4,57.75,57.75,0,0,1-5.58-2,1.16,1.16,0,0,1-.81-1.53c1.27-5.82,2.58-11.62,3.84-17.44.61-2.82,1.13-5.66,1.66-8.5.19-1,.76-.55,1.21-.33a78.43,78.43,0,0,0,12.62,5,39.17,39.17,0,0,0,9.54,1.89c.46.26,1,0,1.46.22l1.27.07c.58.25,1.22,0,1.8.2a49.23,49.23,0,0,0,8.67,0c.47-.21,1,0,1.47-.21a21.75,21.75,0,0,0,11.37-4.29,9.87,9.87,0,0,0,3.94-6.51,5.76,5.76,0,0,0,0-2.48c-.5-4-3.38-6.16-6.28-8.29-4.19-3.09-9-5.15-13.55-7.54a74.54,74.54,0,0,1-13.61-9,36.66,36.66,0,0,1-9.06-11.06,22.38,22.38,0,0,1-2.81-9.54c-.27-1,.1-2-.21-2.93a.5.5,0,0,0,0-.58c.3-1,0-2,.2-2.9a29.58,29.58,0,0,1,2.21-10.07,38.21,38.21,0,0,1,7.71-12.21A46.18,46.18,0,0,1,293,102.78a70.59,70.59,0,0,1,20.25-5.47c.46-.22,1,0,1.47-.21l1.32-.07c.67-.24,1.4.06,2.07-.21l3.79-.07a12.88,12.88,0,0,1,3.34,0l3.5.07c.58.25,1.22,0,1.81.2a96.12,96.12,0,0,1,22.35,5c.75.27,1.08.4.87,1.37-1.51,6.8-2.93,13.62-4.37,20.44-.32,1.47-.75,2.93-.94,4.43-.13,1-.49,1-1.22.65A56,56,0,0,0,335,124.8a56.69,56.69,0,0,0-7.67-1.22c-.65-.3-1.36,0-2-.21a43,43,0,0,0-7.27,0C317.55,123.57,317,123.33,316.54,123.57Z"/><path class="cls-3" d="M199.6,224.69c.89-4.26,1.79-8.52,2.67-12.79,1-4.75,2-9.49,3-14.23.89-4.14,1.77-8.28,2.73-12.4s1.63-8.35,2.53-12.51c1.24-5.77,2.7-11.49,3.84-17.28.93-4.68,2-9.33,2.92-14,.71-3.58,1.59-7.13,2.32-10.71,1-4.69,2.07-9.35,2.94-14.07.83-4.44,1.94-8.84,2.93-13.25.25-1.13.56-2.26.72-3.4.1-.76.42-1,1.14-1q15.42,0,30.85,0c.92,0,1,.39.83,1.1q-3.45,15.84-6.87,31.69C250,142,247.87,152.1,245.7,162.24c-2.38,11.16-4.8,22.31-7.19,33.47q-3.12,14.52-6.2,29a3.94,3.94,0,0,0,0,.69c-.34.36-.79.2-1.19.2q-15.12,0-30.26,0C200.24,225.64,199.23,226,199.6,224.69Z"/><path class="cls-3" d="M283.55,242c6,.14,12.09.16,18.13,0a6.87,6.87,0,0,1,.11,3.89l-13,0c-.54,0-1-.05-1,.76.07,3.3.08,6.59.11,9.89a12.87,12.87,0,0,0,3.45.14c2.87,0,5.75,0,8.62,0,.41,0,.94-.27,1.24.28,0,.79-.13,1.58-.1,2.36s-.31,1.1-1.14,1.09c-3.68,0-7.36,0-11,0-.91,0-1.17.24-1.16,1.15.06,3.35.07,6.71,0,10.05,0,1.05.35,1.19,1.27,1.18,4.51,0,9,0,13.54,0a10.53,10.53,0,0,1,.15,3.17c0,.74-.58.58-1,.58h-7.95c-3.12,0-6.24,0-9.35,0-.85,0-1.24-.13-1.23-1.12,0-10.84,0-21.67,0-32.51C283.28,242.57,283.1,242.18,283.55,242Z"/><path class="cls-3" d="M418.28,277c-5.47-.41-9.55-4.84-10.11-10.67a17.45,17.45,0,0,1,0-3.89,12.21,12.21,0,0,1,3.67-7.95,11.65,11.65,0,0,1,9.56-3.06c5.93.5,9.16,4.09,10.59,9.61.25.45-.05,1,.22,1.45,0,3-.24,5.94-1.8,8.63a11.88,11.88,0,0,1-8.79,5.87A12.45,12.45,0,0,1,418.28,277Z"/><path class="cls-3" d="M331.44,277a10.35,10.35,0,0,1-8.19-4.52,11.73,11.73,0,0,1-2.08-5.9,19.07,19.07,0,0,1,.56-7,11.06,11.06,0,0,1,12.07-8.08c5.54.5,8.3,5,8.84,9.34.15,1.26.15,2.49.21,3.73-.21.8-.87.55-1.38.55H326.63c-.74,0-1.5-.07-1.09,1.08-.14,3.66,3.23,7.28,6.67,7.18a12.35,12.35,0,0,0,3.79,0,6.92,6.92,0,0,0,3.48-.71c.85-.39,1.2-.28,1.44.63.58,2.27.59,2.24-1.7,3a22.26,22.26,0,0,1-3.61.75A20.75,20.75,0,0,1,331.44,277Z"/><path class="cls-3" d="M460.13,261.39c-.12,4.94-.13,9.88,0,14.82-1.36.59-2.78.21-4.17.21-.64,0-.39-.73-.39-1.14,0-3.93,0-7.86,0-11.8a3.8,3.8,0,0,0-.11-1.5c0-4.05-1.55-5.91-3.8-6.64a6.1,6.1,0,0,0-8,6.08,58.87,58.87,0,0,0-.1,6.37c0,2.5-.06,5,0,7.49,0,1-.33,1.33-1.27,1.2-1.1-.16-2.26.31-3.33-.27.12-7.59.19-15.18-.07-22.77a2.32,2.32,0,0,1,.08-1.66c1.3.16,2.64-.29,3.91.27.26.78-.07,1.6.22,2.37a1.13,1.13,0,0,0,.16,1.05,8.44,8.44,0,0,1,5.1-3.75c5.42-1.54,10.49,1.44,11.26,6.82a7.88,7.88,0,0,0,.31,1C460.13,260.18,459.88,260.81,460.13,261.39Z"/><path class="cls-3" d="M347.86,263.78a13.21,13.21,0,0,1,2.11-7.13,11.24,11.24,0,0,1,7.35-4.88c.41-.09.8-.21,1.2-.32s1,0,1.51-.21a26.84,26.84,0,0,1,5.69.76c1.25.35,1.75.84,1.16,2.09a2.76,2.76,0,0,0-.26.78c-.12,1-.65,1.19-1.55.82a17.93,17.93,0,0,0-2-.59,11,11,0,0,0-3.53,0c-3.7.19-6.77,3.64-6.9,7.43a10.27,10.27,0,0,0,0,3.32,8,8,0,0,0,7.14,7.47,12.59,12.59,0,0,0,5.45-.65c.76-.29,1.26-.46,1.48.75.45,2.38.55,2.32-1.88,3a20.47,20.47,0,0,1-2.67.57,17,17,0,0,1-3.9,0,11,11,0,0,1-8.95-5.84,12.43,12.43,0,0,1-1.43-5.93A2.44,2.44,0,0,1,347.86,263.78Z"/><path class="cls-3" d="M380,251.71l6.1.07a9,9,0,0,1,.17,2.88c0,.63-.45.59-.87.59h-4.61c-.48,0-.95,0-.94.68.08,4.69-.14,9.39.12,14.08,0,2.58,1.54,3.69,4.39,3.2,1.42-.24,1.55.25,1.49,1.33a4,4,0,0,0,.06.69c.12.52.25,1-.35,1.38l-1.94.34a11.2,11.2,0,0,1-3.06,0c-2.71-.34-4.73-1.94-5.08-5.91-.2-4.71,0-9.42-.09-14.12a2.71,2.71,0,0,0-.15-1.49h0a9,9,0,0,0-2.88-.14c-.67,0-.94-.25-.87-.9.11-.86-.2-1.75.18-2.59a20.5,20.5,0,0,0,3.59-.11,17.33,17.33,0,0,0,.15-3.38c.05-.41-.24-.91.25-1.24l4-1.13c.4,1.33.07,2.7.19,4.05C379.93,250.55,379.72,251.15,380,251.71Z"/><path class="cls-3" d="M314.1,240.38V276.3c-1.32.39-2.66.09-4,.17-.4,0-.6-.19-.6-.59V275c0-11.14,0-22.28,0-33.43,0-1.17.32-1.59,1.47-1.43S313.07,240,314.1,240.38Z"/><path class="cls-4" d="M0,343a4,4,0,0,0,1.65.14h536.7A3.56,3.56,0,0,0,540,343a.64.64,0,0,1-.68.37h-1.26q-268,0-536.11,0C1.3,343.34.55,343.67,0,343Z"/><path class="cls-3" d="M402.54,255.65c-3.15-.07-5.37,3.07-5.45,5.84-.15,4.92,0,9.84-.06,14.76-1.34.49-2.73.19-4.1.18-.78,0-.47-.78-.47-1.22,0-5.58,0-11.17,0-16.75a3.74,3.74,0,0,0-.11-1.52,12.69,12.69,0,0,0-.25-4.47c-.08-.26-.13-.65.24-.65a14.7,14.7,0,0,1,3.81.13c.07,0,.09.25.13.38.26,1.15-.1,2.34.21,3.49.3.34.33,0,.41-.17,1.39-3.21,4-4.41,7.31-4.41.23,0,.47.17.48.42a12.5,12.5,0,0,1-.15,4h-.41A2.35,2.35,0,0,0,402.54,255.65Z"/><path class="cls-4" d="M283.55,242a3,3,0,0,0-.17,1.51c0,10.49,0,21,0,31.48,0,1.14.25,1.47,1.43,1.45,5.57-.06,11.15,0,16.72,0,1,0,1.32-.27,1.21-1.24s0-1.67-.07-2.5c.65,1.08.26,2.25.26,3.37,0,.75-.76.52-1.22.52-4.55,0-9.1,0-13.65,0-1.26,0-2.51,0-3.77,0-.81,0-1.15-.21-1.15-1.1q0-16.23,0-32.46C283.13,242.69,283,242.22,283.55,242Z"/><path class="cls-4" d="M314.1,240.38c-1.43-.12-3.21-.59-4.2.13s-.27,2.52-.28,3.84c0,10.14,0,20.28-.05,30.42,0,1.48.43,1.85,1.77,1.67a17.14,17.14,0,0,0,2.77-.14c-1.36.7-2.81.17-4.21.29-.32,0-.49-.23-.51-.55s0-.65,0-1c0-11.16,0-22.32,0-33.48,0-1.2.28-1.76,1.54-1.55C312,240.21,313.09,239.68,314.1,240.38Z"/><path class="cls-4" d="M387.55,206.81c.37-.29.8-.15,1.21-.15h39.4c.39,0,.83-.16,1.2.15Z"/><path class="cls-4" d="M346.48,225c0,.93.71.54,1.1.54,3.29,0,6.59,0,9.88,0h21.71c.55,0,1.1-.08,1.65-.12-.25.59-.78.39-1.21.39q-16.11,0-32.22,0C346.93,225.79,346,226.12,346.48,225Z"/><path class="cls-4" d="M124.82,225.46c1.48,0,3,.06,4.45.07h28.85c.53,0,1.12.19,1.59-.27-.11.68-.65.55-1.09.55H125.8C125.44,225.8,125,225.88,124.82,225.46Z"/><path class="cls-4" d="M199.6,224.69c0,.48,0,.9.68.85,1-.06,1.95,0,2.92,0h27.42c.55,0,1.11-.05,1.66-.08-.3.53-.82.34-1.25.34H200.65C200,225.79,199,226,199.6,224.69Z"/><path class="cls-4" d="M433.37,225.46c3.9,0,7.81.06,11.71.07h17.17a3.25,3.25,0,0,0,1.51-.16c-.23.61-.77.42-1.19.42H434.49C434.09,225.8,433.63,225.93,433.37,225.46Z"/><path class="cls-4" d="M380,270a3.78,3.78,0,0,1-.21-1.91c0-3.75.08-7.5,0-11.25-.05-1.49.45-1.8,1.78-1.69s2.59,0,3.89,0c.59,0,.84-.17.8-.79-.06-.87-.06-1.75-.08-2.63.65,1,.24,2.06.28,3.09,0,.58-.54.52-.95.53-1.34,0-2.69.07-4,0-1.1-.07-1.44.28-1.43,1.4C380.05,261.19,380,265.6,380,270Z"/><path class="cls-4" d="M392.33,256.94a35.94,35.94,0,0,1,.15,5.68c0,4.12.07,8.24,0,12.35,0,1.29.38,1.63,1.55,1.47,1-.13,2,.18,3-.19-1.39.78-2.87.28-4.31.29-.55,0-.41-.64-.41-1Q392.31,266.23,392.33,256.94Z"/><path class="cls-4" d="M439,276.21c1.3.46,2.65.15,4,.2.85,0,.57-.69.57-1.12,0-4.12,0-8.24,0-12.36a3.31,3.31,0,0,1,.12-1.5c0,4.67,0,9.34.05,14,0,.9-.27,1.32-1.18,1.18C441.34,276.44,440.06,277.06,439,276.21Z"/><path class="cls-4" d="M455.44,262c.3,3.27.05,6.55.13,9.83,0,.37,0,.74,0,1.11.1,1.14-.52,2.87.26,3.27a6.16,6.16,0,0,0,4.3,0c-1.4.88-2.92.32-4.38.3-.48,0-.34-.68-.34-1.08C455.41,271,455.43,266.46,455.44,262Z"/><path class="cls-4" d="M325.54,266.11c-.41-.91-.13-1.21.87-1.2,5,0,10,0,15,0,.52,0,1.13.21,1.47-.45,0,1-.83.69-1.35.69q-7.33,0-14.66,0C326.16,265.17,325.48,265.11,325.54,266.11Z"/><path class="cls-4" d="M375.26,255.42a4,4,0,0,1,.15,2c0,4.53.07,9.05.09,13.58-.39-.44-.22-1-.23-1.46Q375.26,262.49,375.26,255.42Z"/><path class="cls-4" d="M301.26,257a2.3,2.3,0,0,0-1.48-.23c-3.51,0-7,0-10.53,0-.43,0-.92.22-1.3-.19,3.95,0,7.89,0,11.84,0C300.29,256.53,300.94,256.24,301.26,257Z"/><path class="cls-4" d="M371.68,251.78c-.26,3.27-.26,3.27,3,3.41.23,0,.47-.05.6.22h-2.91c-.36,0-.89.08-.9-.41C371.41,253.92,371,252.8,371.68,251.78Z"/><path class="cls-4" d="M380,251.71c-.57-1.21-.11-2.49-.24-3.73-.07-.68-.06-1.37-.09-2.06.67.8.25,1.75.31,2.63C380.08,249.6,380,250.66,380,251.71Z"/><path class="cls-4" d="M348,187.26c0-1.95,0-3.9,0-5.85A14.77,14.77,0,0,1,348,187.26Z"/><path class="cls-4" d="M289,227.53h5.3A12.46,12.46,0,0,1,289,227.53Z"/><path class="cls-4" d="M375.67,247.05c-.48,1-.13,2.1-.25,3.14-.05.49.17,1-.15,1.48,0-1.14,0-2.29,0-3.43C375.28,247.82,375.09,247.3,375.67,247.05Z"/><path class="cls-4" d="M404.52,255.66c0-1.48.57-3-.33-4.42.24,0,.57,0,.58.26C404.8,252.89,405.22,254.31,404.52,255.66Z"/><path class="cls-4" d="M331.44,277h4.17A7.67,7.67,0,0,1,331.44,277Z"/><path class="cls-4" d="M408.17,262.39v3.89A7,7,0,0,1,408.17,262.39Z"/><path class="cls-4" d="M301.79,245.9a8,8,0,0,0-.11-3.89A4.27,4.27,0,0,1,301.79,245.9Z"/><path class="cls-4" d="M358.24,276.94h3.9A6.9,6.9,0,0,1,358.24,276.94Z"/><path class="cls-4" d="M336,273.3a7.27,7.27,0,0,1-3.79,0Z"/><path class="cls-4" d="M396.47,255.82a12,12,0,0,1-.21-3.49C396.75,253.47,396.4,254.66,396.47,255.82Z"/><path class="cls-4" d="M359.52,255.09a5.83,5.83,0,0,1,3.53,0Z"/><path class="cls-4" d="M418.28,277h3.34A5,5,0,0,1,418.28,277Z"/><path class="cls-4" d="M325.28,96.75h-3.34A5.16,5.16,0,0,1,325.28,96.75Z"/><path class="cls-4" d="M352.62,265.84a5.45,5.45,0,0,1,0-3.32Z"/><path class="cls-4" d="M380.58,276.94h3.06A4.3,4.3,0,0,1,380.58,276.94Z"/><path class="cls-5" d="M102.18,138.12c-.09.5.6.85.25,1.4C101.42,139.22,101.32,138.76,102.18,138.12Z"/><path class="cls-4" d="M268.07,139.1a11.48,11.48,0,0,1,.21,2.93C267.78,141.08,268.14,140.08,268.07,139.1Z"/><path class="cls-4" d="M268.27,135.62a10.88,10.88,0,0,1-.2,2.9C268.13,137.55,267.8,136.55,268.27,135.62Z"/><path class="cls-4" d="M313.59,187.41a3.48,3.48,0,0,1,0,2.48Z"/><path class="cls-4" d="M283.41,227.24a6.13,6.13,0,0,1,2.33.21C285,227.4,284.15,227.71,283.41,227.24Z"/><path class="cls-4" d="M443.1,254.42a6.12,6.12,0,0,1-.22-2.37C443.37,252.81,443,253.63,443.1,254.42Z"/><path class="cls-4" d="M318.15,96.82a5,5,0,0,1-2.07.21C316.73,96.57,317.46,96.87,318.15,96.82Z"/><path class="cls-4" d="M302.37,135.39a2.68,2.68,0,0,1,0-2.15C302.36,134,302.37,134.67,302.37,135.39Z"/><path class="cls-4" d="M325.29,123.37a4.2,4.2,0,0,1,2,.21C326.64,123.53,325.93,123.82,325.29,123.37Z"/><path class="cls-4" d="M439,251.78c0,.55-.05,1.1-.08,1.66A1.25,1.25,0,0,1,439,251.78Z"/><path class="cls-4" d="M385.58,276.61c.52-.36.24-.92.35-1.38C386.22,275.79,386.49,276.35,385.58,276.61Z"/><path class="cls-4" d="M288.14,200.9a3.68,3.68,0,0,1-1.8-.2C286.94,200.74,287.58,200.47,288.14,200.9Z"/><path class="cls-4" d="M330.59,97a3.71,3.71,0,0,1-1.81-.2C329.38,96.86,330,96.6,330.59,97Z"/><path class="cls-5" d="M69.79,105.75c.48-.3.77.11,1.11.31C70.38,106.51,70.07,106.19,69.79,105.75Z"/><path class="cls-4" d="M297.23,227.45a3.81,3.81,0,0,1,1.8-.21C298.47,227.67,297.84,227.41,297.23,227.45Z"/><path class="cls-5" d="M98.24,123.33c.2.34.56.64.29,1.11C98.09,124.15,97.76,123.85,98.24,123.33Z"/><path class="cls-4" d="M460.13,261.39a5,5,0,0,1-.2-1.8C460.35,260.15,460.09,260.79,460.13,261.39Z"/><path class="cls-5" d="M99.92,129.75c.19.34.54.65.28,1.11C99.77,130.57,99.43,130.27,99.92,129.75Z"/><path class="cls-4" d="M280.34,227a2.68,2.68,0,0,1,1.53.21C281.35,227.14,280.8,227.37,280.34,227Z"/><path class="cls-4" d="M347.86,263.78v1.39A1.05,1.05,0,0,1,347.86,263.78Z"/><path class="cls-4" d="M277.82,226.68a2.57,2.57,0,0,1,1.47.21C278.79,226.87,278.26,227.09,277.82,226.68Z"/><path class="cls-4" d="M314.76,97.1a2.58,2.58,0,0,1-1.47.21C313.73,96.91,314.26,97.12,314.76,97.1Z"/><path class="cls-4" d="M298.28,200.69a2.33,2.33,0,0,1-1.47.21C297.25,200.5,297.78,200.72,298.28,200.69Z"/><path class="cls-4" d="M432.21,262.44A2.59,2.59,0,0,1,432,261C432.41,261.42,432.18,262,432.21,262.44Z"/><path class="cls-4" d="M285.07,200.63a2.54,2.54,0,0,1-1.46-.22C284.1,200.44,284.63,200.22,285.07,200.63Z"/><path class="cls-4" d="M347.66,190.05a2.86,2.86,0,0,1,.22-1.47C347.86,189.08,348.08,189.61,347.66,190.05Z"/><path class="cls-4" d="M316.54,123.57a2.68,2.68,0,0,1,1.48-.19C317.57,123.77,317,123.56,316.54,123.57Z"/><path class="cls-4" d="M360,251.24a3.11,3.11,0,0,1-1.51.21C359,251,359.52,251.26,360,251.24Z"/><path class="cls-4" d="M402.54,255.65a2.08,2.08,0,0,1,1.57,0Z"/><path class="cls-5" d="M414.19,133.5c1.67,8,3.29,15.7,4.9,23.41,1.55,7.45,3.08,14.91,4.68,22.36.24,1.15.09,1.52-1.18,1.51-8.14-.05-16.28,0-24.43,0-.86,0-1.27,0-.87-1.11q8.29-22.74,16.53-45.52A5.09,5.09,0,0,1,414.19,133.5Z"/><path class="cls-5" d="M427.57,264.25a10.37,10.37,0,0,1-2.36,7,6.6,6.6,0,0,1-10.58-.46,12.28,12.28,0,0,1-.08-13.16A6.77,6.77,0,0,1,426,258,11.25,11.25,0,0,1,427.57,264.25Z"/><path class="cls-5" d="M331.93,261.75h-5.57c-.5,0-.94,0-.81-.73.8-4.71,4.45-7.71,9.21-6.07,2.21.76,4,3.88,3.71,6.17-.08.75-.53.62-1,.62Z"/></svg>